<mxfile host="Electron" agent="Mozilla/5.0 (Windows NT 10.0; Win64; x64) AppleWebKit/537.36 (KHTML, like Gecko) draw.io/24.2.5 Chrome/120.0.6099.109 Electron/28.1.0 Safari/537.36" modified="2024-11-10T16:24:00.681Z" version="24.2.5" etag="arhU-_rbkiFL1NLabbjZ" type="device" pages="2">
  <diagram id="DNZPeokAVKY9f7J09lFV" name="MAIN">
    <mxGraphModel dx="1434" dy="2005" grid="1" gridSize="10" guides="1" tooltips="1" connect="1" arrows="1" fold="1" page="1" pageScale="1" pageWidth="827" pageHeight="1169" math="0" shadow="0">
      <root>
        <mxCell id="0" />
        <mxCell id="1" parent="0" />
        <mxCell id="qm2MDwGBcULi9aVImwgN-10" value="" style="group" parent="1" vertex="1" connectable="0">
          <mxGeometry x="210" y="70" width="280" height="240" as="geometry" />
        </mxCell>
        <mxCell id="qm2MDwGBcULi9aVImwgN-1" value="" style="ellipse;whiteSpace=wrap;html=1;aspect=fixed;" parent="qm2MDwGBcULi9aVImwgN-10" vertex="1">
          <mxGeometry y="40" width="80" height="80" as="geometry" />
        </mxCell>
        <mxCell id="qm2MDwGBcULi9aVImwgN-2" value="" style="endArrow=none;html=1;rounded=0;exitX=0.5;exitY=0;exitDx=0;exitDy=0;" parent="qm2MDwGBcULi9aVImwgN-10" source="qm2MDwGBcULi9aVImwgN-1" edge="1">
          <mxGeometry width="50" height="50" relative="1" as="geometry">
            <mxPoint x="180" y="20" as="sourcePoint" />
            <mxPoint x="40" as="targetPoint" />
          </mxGeometry>
        </mxCell>
        <mxCell id="qm2MDwGBcULi9aVImwgN-3" value="" style="endArrow=none;html=1;rounded=0;" parent="qm2MDwGBcULi9aVImwgN-10" edge="1">
          <mxGeometry width="50" height="50" relative="1" as="geometry">
            <mxPoint x="40" as="sourcePoint" />
            <mxPoint x="280" as="targetPoint" />
          </mxGeometry>
        </mxCell>
        <mxCell id="qm2MDwGBcULi9aVImwgN-4" value="" style="endArrow=none;html=1;rounded=0;" parent="qm2MDwGBcULi9aVImwgN-10" edge="1">
          <mxGeometry width="50" height="50" relative="1" as="geometry">
            <mxPoint x="40" y="240" as="sourcePoint" />
            <mxPoint x="280" y="240" as="targetPoint" />
          </mxGeometry>
        </mxCell>
        <mxCell id="qm2MDwGBcULi9aVImwgN-5" value="" style="endArrow=none;html=1;rounded=0;" parent="qm2MDwGBcULi9aVImwgN-10" edge="1">
          <mxGeometry width="50" height="50" relative="1" as="geometry">
            <mxPoint x="280" y="240" as="sourcePoint" />
            <mxPoint x="280" as="targetPoint" />
          </mxGeometry>
        </mxCell>
        <mxCell id="qm2MDwGBcULi9aVImwgN-6" value="" style="endArrow=none;html=1;rounded=0;" parent="qm2MDwGBcULi9aVImwgN-10" edge="1">
          <mxGeometry width="50" height="50" relative="1" as="geometry">
            <mxPoint x="39.66" y="240" as="sourcePoint" />
            <mxPoint x="40" y="120" as="targetPoint" />
          </mxGeometry>
        </mxCell>
        <mxCell id="qm2MDwGBcULi9aVImwgN-7" value="" style="endArrow=none;html=1;rounded=0;exitX=0.066;exitY=0.365;exitDx=0;exitDy=0;exitPerimeter=0;entryX=0.945;entryY=0.365;entryDx=0;entryDy=0;entryPerimeter=0;" parent="qm2MDwGBcULi9aVImwgN-10" source="qm2MDwGBcULi9aVImwgN-1" target="qm2MDwGBcULi9aVImwgN-1" edge="1">
          <mxGeometry width="50" height="50" relative="1" as="geometry">
            <mxPoint x="180" y="160" as="sourcePoint" />
            <mxPoint x="230" y="110" as="targetPoint" />
          </mxGeometry>
        </mxCell>
        <mxCell id="qm2MDwGBcULi9aVImwgN-8" value="" style="endArrow=none;html=1;rounded=0;exitX=0.365;exitY=0.983;exitDx=0;exitDy=0;exitPerimeter=0;" parent="qm2MDwGBcULi9aVImwgN-10" source="qm2MDwGBcULi9aVImwgN-1" edge="1">
          <mxGeometry width="50" height="50" relative="1" as="geometry">
            <mxPoint x="120" y="150" as="sourcePoint" />
            <mxPoint x="30" y="70" as="targetPoint" />
          </mxGeometry>
        </mxCell>
        <mxCell id="qm2MDwGBcULi9aVImwgN-9" value="" style="endArrow=none;html=1;rounded=0;exitX=0.365;exitY=0.983;exitDx=0;exitDy=0;exitPerimeter=0;" parent="qm2MDwGBcULi9aVImwgN-10" edge="1">
          <mxGeometry width="50" height="50" relative="1" as="geometry">
            <mxPoint x="60" y="119" as="sourcePoint" />
            <mxPoint x="61" y="70" as="targetPoint" />
          </mxGeometry>
        </mxCell>
        <mxCell id="qm2MDwGBcULi9aVImwgN-11" value="X" style="text;html=1;align=center;verticalAlign=middle;whiteSpace=wrap;rounded=0;" parent="qm2MDwGBcULi9aVImwgN-10" vertex="1">
          <mxGeometry x="10" y="40" width="60" height="30" as="geometry" />
        </mxCell>
        <mxCell id="qm2MDwGBcULi9aVImwgN-15" value="X++" style="text;html=1;align=center;verticalAlign=middle;whiteSpace=wrap;rounded=0;" parent="qm2MDwGBcULi9aVImwgN-10" vertex="1">
          <mxGeometry x="50" y="70" width="60" height="30" as="geometry" />
        </mxCell>
        <mxCell id="1fD0BJYSQJ9lnDHRLfOu-1" value="" style="shape=trapezoid;perimeter=trapezoidPerimeter;whiteSpace=wrap;html=1;fixedSize=1;rotation=-180;" parent="qm2MDwGBcULi9aVImwgN-10" vertex="1">
          <mxGeometry x="100" y="10" width="120" height="40" as="geometry" />
        </mxCell>
        <mxCell id="1fD0BJYSQJ9lnDHRLfOu-2" value="TOUR, DES, PC, PT" style="text;html=1;align=center;verticalAlign=middle;whiteSpace=wrap;rounded=0;" parent="qm2MDwGBcULi9aVImwgN-10" vertex="1">
          <mxGeometry x="100" y="15" width="110" height="30" as="geometry" />
        </mxCell>
        <mxCell id="1fD0BJYSQJ9lnDHRLfOu-10" value="" style="group" parent="qm2MDwGBcULi9aVImwgN-10" vertex="1" connectable="0">
          <mxGeometry x="95" y="90" width="120" height="110" as="geometry" />
        </mxCell>
        <mxCell id="1fD0BJYSQJ9lnDHRLfOu-11" value="" style="rounded=0;whiteSpace=wrap;html=1;" parent="1fD0BJYSQJ9lnDHRLfOu-10" vertex="1">
          <mxGeometry y="80" width="120" height="30" as="geometry" />
        </mxCell>
        <mxCell id="1fD0BJYSQJ9lnDHRLfOu-12" value="&lt;font style=&quot;font-size: 10px;&quot;&gt;VPT[ TOUR -1 ] = PT&lt;/font&gt;" style="text;html=1;align=center;verticalAlign=middle;whiteSpace=wrap;rounded=0;" parent="1fD0BJYSQJ9lnDHRLfOu-10" vertex="1">
          <mxGeometry x="10" y="80" width="110" height="30" as="geometry" />
        </mxCell>
        <mxCell id="1fD0BJYSQJ9lnDHRLfOu-13" value="" style="rounded=0;whiteSpace=wrap;html=1;" parent="1fD0BJYSQJ9lnDHRLfOu-10" vertex="1">
          <mxGeometry y="40" width="120" height="30" as="geometry" />
        </mxCell>
        <mxCell id="1fD0BJYSQJ9lnDHRLfOu-14" value="&lt;font style=&quot;font-size: 10px;&quot;&gt;VPC[ TOUR - 1] = PC&lt;/font&gt;" style="text;html=1;align=center;verticalAlign=middle;whiteSpace=wrap;rounded=0;" parent="1fD0BJYSQJ9lnDHRLfOu-10" vertex="1">
          <mxGeometry x="10" y="40" width="110" height="30" as="geometry" />
        </mxCell>
        <mxCell id="1fD0BJYSQJ9lnDHRLfOu-15" value="" style="rounded=0;whiteSpace=wrap;html=1;" parent="1fD0BJYSQJ9lnDHRLfOu-10" vertex="1">
          <mxGeometry width="120" height="30" as="geometry" />
        </mxCell>
        <mxCell id="1fD0BJYSQJ9lnDHRLfOu-16" value="&lt;font style=&quot;font-size: 10px;&quot;&gt;VDES[ TOUR -1&amp;nbsp; ] = DEST&lt;/font&gt;" style="text;html=1;align=center;verticalAlign=middle;whiteSpace=wrap;rounded=0;" parent="1fD0BJYSQJ9lnDHRLfOu-10" vertex="1">
          <mxGeometry width="110" height="30" as="geometry" />
        </mxCell>
        <mxCell id="qm2MDwGBcULi9aVImwgN-12" value="X=1" style="text;html=1;align=center;verticalAlign=middle;whiteSpace=wrap;rounded=0;" parent="1" vertex="1">
          <mxGeometry x="190" y="140" width="70" height="30" as="geometry" />
        </mxCell>
        <mxCell id="qm2MDwGBcULi9aVImwgN-13" value="X&amp;lt;=50" style="text;html=1;align=center;verticalAlign=middle;whiteSpace=wrap;rounded=0;" parent="1" vertex="1">
          <mxGeometry x="220" y="154.5" width="60" height="30" as="geometry" />
        </mxCell>
        <mxCell id="1fD0BJYSQJ9lnDHRLfOu-9" value="" style="group" parent="1" vertex="1" connectable="0">
          <mxGeometry x="310" y="-50" width="120" height="110" as="geometry" />
        </mxCell>
        <mxCell id="1fD0BJYSQJ9lnDHRLfOu-3" value="" style="rounded=0;whiteSpace=wrap;html=1;" parent="1fD0BJYSQJ9lnDHRLfOu-9" vertex="1">
          <mxGeometry y="80" width="120" height="30" as="geometry" />
        </mxCell>
        <mxCell id="1fD0BJYSQJ9lnDHRLfOu-4" value="FLOAT VPT[50]" style="text;html=1;align=center;verticalAlign=middle;whiteSpace=wrap;rounded=0;" parent="1fD0BJYSQJ9lnDHRLfOu-9" vertex="1">
          <mxGeometry x="10" y="80" width="110" height="30" as="geometry" />
        </mxCell>
        <mxCell id="1fD0BJYSQJ9lnDHRLfOu-5" value="" style="rounded=0;whiteSpace=wrap;html=1;" parent="1fD0BJYSQJ9lnDHRLfOu-9" vertex="1">
          <mxGeometry y="40" width="120" height="30" as="geometry" />
        </mxCell>
        <mxCell id="1fD0BJYSQJ9lnDHRLfOu-6" value="FLOAT VPC[50]" style="text;html=1;align=center;verticalAlign=middle;whiteSpace=wrap;rounded=0;" parent="1fD0BJYSQJ9lnDHRLfOu-9" vertex="1">
          <mxGeometry x="10" y="40" width="110" height="30" as="geometry" />
        </mxCell>
        <mxCell id="1fD0BJYSQJ9lnDHRLfOu-7" value="" style="rounded=0;whiteSpace=wrap;html=1;" parent="1fD0BJYSQJ9lnDHRLfOu-9" vertex="1">
          <mxGeometry width="120" height="30" as="geometry" />
        </mxCell>
        <mxCell id="1fD0BJYSQJ9lnDHRLfOu-8" value="INT VDES[50]" style="text;html=1;align=center;verticalAlign=middle;whiteSpace=wrap;rounded=0;" parent="1fD0BJYSQJ9lnDHRLfOu-9" vertex="1">
          <mxGeometry x="10" width="110" height="30" as="geometry" />
        </mxCell>
        <mxCell id="1fD0BJYSQJ9lnDHRLfOu-17" value="" style="swimlane;startSize=0;" parent="1" vertex="1">
          <mxGeometry x="180" y="950" width="538" height="760" as="geometry" />
        </mxCell>
        <mxCell id="1fD0BJYSQJ9lnDHRLfOu-20" value="" style="shape=trapezoid;perimeter=trapezoidPerimeter;whiteSpace=wrap;html=1;fixedSize=1;rotation=-180;" parent="1fD0BJYSQJ9lnDHRLfOu-17" vertex="1">
          <mxGeometry x="138" y="690" width="186" height="40" as="geometry" />
        </mxCell>
        <mxCell id="1fD0BJYSQJ9lnDHRLfOu-21" value="CLI,MES,TOUR,CANTPAS, FP" style="text;html=1;align=center;verticalAlign=middle;whiteSpace=wrap;rounded=0;" parent="1fD0BJYSQJ9lnDHRLfOu-17" vertex="1">
          <mxGeometry x="201" y="695" width="60" height="30" as="geometry" />
        </mxCell>
        <mxCell id="1fD0BJYSQJ9lnDHRLfOu-29" value="CLI != 0" style="text;html=1;align=center;verticalAlign=middle;whiteSpace=wrap;rounded=0;" parent="1fD0BJYSQJ9lnDHRLfOu-17" vertex="1">
          <mxGeometry x="160" width="60" height="30" as="geometry" />
        </mxCell>
        <mxCell id="1fD0BJYSQJ9lnDHRLfOu-30" value="" style="rounded=0;whiteSpace=wrap;html=1;" parent="1fD0BJYSQJ9lnDHRLfOu-17" vertex="1">
          <mxGeometry x="130" y="70" width="120" height="30" as="geometry" />
        </mxCell>
        <mxCell id="1fD0BJYSQJ9lnDHRLfOu-31" value="&lt;font style=&quot;font-size: 10px;&quot;&gt;DEST = VDES[&amp;nbsp; TOUR -1 ]&amp;nbsp;&lt;/font&gt;" style="text;html=1;align=center;verticalAlign=middle;whiteSpace=wrap;rounded=0;" parent="1fD0BJYSQJ9lnDHRLfOu-17" vertex="1">
          <mxGeometry x="130" y="70" width="110" height="30" as="geometry" />
        </mxCell>
        <mxCell id="1fD0BJYSQJ9lnDHRLfOu-32" value="devuelve un numero entre 1 y 20" style="text;html=1;align=center;verticalAlign=middle;whiteSpace=wrap;rounded=0;" parent="1fD0BJYSQJ9lnDHRLfOu-17" vertex="1">
          <mxGeometry x="270" y="70" width="110" height="30" as="geometry" />
        </mxCell>
        <mxCell id="8toKd3_DE6rP6kfDc0lE-22" value="VCPV [ DEST - 1&amp;nbsp; ] += CANTPAS&amp;nbsp;" style="rounded=0;whiteSpace=wrap;html=1;" parent="1fD0BJYSQJ9lnDHRLfOu-17" vertex="1">
          <mxGeometry x="95" y="120" width="210" height="20" as="geometry" />
        </mxCell>
        <mxCell id="25qTCIS9DttSv9UldIgT-14" value="VCT [ TOUR - 1&amp;nbsp; ] += CANTPAS&amp;nbsp;" style="rounded=0;whiteSpace=wrap;html=1;" parent="1fD0BJYSQJ9lnDHRLfOu-17" vertex="1">
          <mxGeometry x="95" y="160" width="210" height="20" as="geometry" />
        </mxCell>
        <mxCell id="_38f6_x6W5TP_OIeZ4oF-6" style="edgeStyle=orthogonalEdgeStyle;rounded=0;orthogonalLoop=1;jettySize=auto;html=1;entryX=0.5;entryY=0;entryDx=0;entryDy=0;" parent="1fD0BJYSQJ9lnDHRLfOu-17" source="_38f6_x6W5TP_OIeZ4oF-1" target="_38f6_x6W5TP_OIeZ4oF-4" edge="1">
          <mxGeometry relative="1" as="geometry" />
        </mxCell>
        <mxCell id="_38f6_x6W5TP_OIeZ4oF-9" style="edgeStyle=orthogonalEdgeStyle;rounded=0;orthogonalLoop=1;jettySize=auto;html=1;entryX=0.5;entryY=0;entryDx=0;entryDy=0;exitX=0;exitY=0.5;exitDx=0;exitDy=0;" parent="1fD0BJYSQJ9lnDHRLfOu-17" source="_38f6_x6W5TP_OIeZ4oF-1" target="_38f6_x6W5TP_OIeZ4oF-7" edge="1">
          <mxGeometry relative="1" as="geometry" />
        </mxCell>
        <mxCell id="_38f6_x6W5TP_OIeZ4oF-1" value="FP == 1" style="rhombus;whiteSpace=wrap;html=1;" parent="1fD0BJYSQJ9lnDHRLfOu-17" vertex="1">
          <mxGeometry x="140" y="200" width="80" height="50" as="geometry" />
        </mxCell>
        <mxCell id="_38f6_x6W5TP_OIeZ4oF-4" value="PRE = VPC[&amp;nbsp; TOUR - 1 ]" style="rounded=0;whiteSpace=wrap;html=1;" parent="1fD0BJYSQJ9lnDHRLfOu-17" vertex="1">
          <mxGeometry x="234" y="250" width="146" height="30" as="geometry" />
        </mxCell>
        <mxCell id="_38f6_x6W5TP_OIeZ4oF-13" style="edgeStyle=orthogonalEdgeStyle;rounded=0;orthogonalLoop=1;jettySize=auto;html=1;entryX=0.5;entryY=0;entryDx=0;entryDy=0;" parent="1fD0BJYSQJ9lnDHRLfOu-17" source="_38f6_x6W5TP_OIeZ4oF-5" edge="1">
          <mxGeometry relative="1" as="geometry">
            <mxPoint x="185" y="350.00000000000045" as="targetPoint" />
            <Array as="points">
              <mxPoint x="307" y="340" />
              <mxPoint x="185" y="340" />
            </Array>
          </mxGeometry>
        </mxCell>
        <mxCell id="_38f6_x6W5TP_OIeZ4oF-5" value="IMP = CANTPAS * PRE" style="rounded=0;whiteSpace=wrap;html=1;" parent="1fD0BJYSQJ9lnDHRLfOu-17" vertex="1">
          <mxGeometry x="234" y="290" width="146" height="30" as="geometry" />
        </mxCell>
        <mxCell id="_38f6_x6W5TP_OIeZ4oF-7" value="PRE = VPT[&amp;nbsp; TOUR - 1 ]" style="rounded=0;whiteSpace=wrap;html=1;" parent="1fD0BJYSQJ9lnDHRLfOu-17" vertex="1">
          <mxGeometry x="14" y="250" width="146" height="30" as="geometry" />
        </mxCell>
        <mxCell id="_38f6_x6W5TP_OIeZ4oF-12" style="edgeStyle=orthogonalEdgeStyle;rounded=0;orthogonalLoop=1;jettySize=auto;html=1;" parent="1fD0BJYSQJ9lnDHRLfOu-17" source="_38f6_x6W5TP_OIeZ4oF-8" edge="1">
          <mxGeometry relative="1" as="geometry">
            <mxPoint x="185" y="350.00000000000045" as="targetPoint" />
            <Array as="points">
              <mxPoint x="87" y="340" />
              <mxPoint x="185" y="340" />
            </Array>
          </mxGeometry>
        </mxCell>
        <mxCell id="_38f6_x6W5TP_OIeZ4oF-8" value="IMP = CANTPAS * PRE" style="rounded=0;whiteSpace=wrap;html=1;" parent="1fD0BJYSQJ9lnDHRLfOu-17" vertex="1">
          <mxGeometry x="14" y="290" width="146" height="30" as="geometry" />
        </mxCell>
        <mxCell id="_38f6_x6W5TP_OIeZ4oF-29" value="" style="endArrow=none;html=1;rounded=0;" parent="1fD0BJYSQJ9lnDHRLfOu-17" edge="1">
          <mxGeometry width="50" height="50" relative="1" as="geometry">
            <mxPoint x="93" y="400" as="sourcePoint" />
            <mxPoint x="133" y="360" as="targetPoint" />
          </mxGeometry>
        </mxCell>
        <mxCell id="_38f6_x6W5TP_OIeZ4oF-30" value="" style="endArrow=none;html=1;rounded=0;" parent="1fD0BJYSQJ9lnDHRLfOu-17" edge="1">
          <mxGeometry width="50" height="50" relative="1" as="geometry">
            <mxPoint x="293" y="440" as="sourcePoint" />
            <mxPoint x="333" y="400" as="targetPoint" />
          </mxGeometry>
        </mxCell>
        <mxCell id="_38f6_x6W5TP_OIeZ4oF-31" value="" style="endArrow=none;html=1;rounded=0;" parent="1fD0BJYSQJ9lnDHRLfOu-17" edge="1">
          <mxGeometry width="50" height="50" relative="1" as="geometry">
            <mxPoint x="133" y="360" as="sourcePoint" />
            <mxPoint x="293" y="360" as="targetPoint" />
          </mxGeometry>
        </mxCell>
        <mxCell id="_38f6_x6W5TP_OIeZ4oF-32" value="" style="endArrow=none;html=1;rounded=0;" parent="1fD0BJYSQJ9lnDHRLfOu-17" edge="1">
          <mxGeometry width="50" height="50" relative="1" as="geometry">
            <mxPoint x="133" y="440" as="sourcePoint" />
            <mxPoint x="293" y="440" as="targetPoint" />
          </mxGeometry>
        </mxCell>
        <mxCell id="_38f6_x6W5TP_OIeZ4oF-33" value="" style="endArrow=none;html=1;rounded=0;" parent="1fD0BJYSQJ9lnDHRLfOu-17" edge="1">
          <mxGeometry width="50" height="50" relative="1" as="geometry">
            <mxPoint x="333" y="400" as="sourcePoint" />
            <mxPoint x="293" y="360" as="targetPoint" />
          </mxGeometry>
        </mxCell>
        <mxCell id="_38f6_x6W5TP_OIeZ4oF-34" value="" style="endArrow=none;html=1;rounded=0;" parent="1fD0BJYSQJ9lnDHRLfOu-17" edge="1">
          <mxGeometry width="50" height="50" relative="1" as="geometry">
            <mxPoint x="133" y="440" as="sourcePoint" />
            <mxPoint x="93" y="400" as="targetPoint" />
          </mxGeometry>
        </mxCell>
        <mxCell id="_38f6_x6W5TP_OIeZ4oF-35" value="" style="endArrow=none;html=1;rounded=0;" parent="1fD0BJYSQJ9lnDHRLfOu-17" edge="1">
          <mxGeometry width="50" height="50" relative="1" as="geometry">
            <mxPoint x="93" y="400" as="sourcePoint" />
            <mxPoint x="333" y="400" as="targetPoint" />
          </mxGeometry>
        </mxCell>
        <mxCell id="_38f6_x6W5TP_OIeZ4oF-36" value="" style="endArrow=none;html=1;rounded=0;" parent="1fD0BJYSQJ9lnDHRLfOu-17" edge="1">
          <mxGeometry width="50" height="50" relative="1" as="geometry">
            <mxPoint x="213" y="440" as="sourcePoint" />
            <mxPoint x="213" y="400" as="targetPoint" />
          </mxGeometry>
        </mxCell>
        <mxCell id="_38f6_x6W5TP_OIeZ4oF-37" value="OBTENER_TRIMESTRE" style="text;html=1;align=center;verticalAlign=middle;resizable=0;points=[];autosize=1;strokeColor=none;fillColor=none;" parent="1fD0BJYSQJ9lnDHRLfOu-17" vertex="1">
          <mxGeometry x="133" y="368" width="160" height="30" as="geometry" />
        </mxCell>
        <mxCell id="_38f6_x6W5TP_OIeZ4oF-39" value="MES" style="text;html=1;align=center;verticalAlign=middle;resizable=0;points=[];autosize=1;strokeColor=none;fillColor=none;" parent="1fD0BJYSQJ9lnDHRLfOu-17" vertex="1">
          <mxGeometry x="138" y="408" width="50" height="30" as="geometry" />
        </mxCell>
        <mxCell id="_38f6_x6W5TP_OIeZ4oF-40" value="T =" style="text;html=1;align=center;verticalAlign=middle;whiteSpace=wrap;rounded=0;" parent="1fD0BJYSQJ9lnDHRLfOu-17" vertex="1">
          <mxGeometry x="40" y="386" width="60" height="30" as="geometry" />
        </mxCell>
        <mxCell id="_38f6_x6W5TP_OIeZ4oF-41" value="-" style="text;html=1;align=center;verticalAlign=middle;resizable=0;points=[];autosize=1;strokeColor=none;fillColor=none;" parent="1fD0BJYSQJ9lnDHRLfOu-17" vertex="1">
          <mxGeometry x="233" y="408" width="30" height="30" as="geometry" />
        </mxCell>
        <mxCell id="t1FjJ-dCxHpJVIbKeD3q-1" value="T TIENE VALORES DEL 1 AL 4" style="text;html=1;align=center;verticalAlign=middle;resizable=0;points=[];autosize=1;strokeColor=none;fillColor=none;" parent="1fD0BJYSQJ9lnDHRLfOu-17" vertex="1">
          <mxGeometry x="348" y="386" width="190" height="30" as="geometry" />
        </mxCell>
        <mxCell id="t1FjJ-dCxHpJVIbKeD3q-2" value="VTRIM [ T -1 ] += IMP" style="rounded=0;whiteSpace=wrap;html=1;" parent="1fD0BJYSQJ9lnDHRLfOu-17" vertex="1">
          <mxGeometry x="100" y="460" width="210" height="20" as="geometry" />
        </mxCell>
        <mxCell id="7-T27TM8aywJfX2mCg_o-1" value="" style="endArrow=none;html=1;rounded=0;" parent="1fD0BJYSQJ9lnDHRLfOu-17" edge="1">
          <mxGeometry width="50" height="50" relative="1" as="geometry">
            <mxPoint x="93" y="540" as="sourcePoint" />
            <mxPoint x="133" y="500" as="targetPoint" />
          </mxGeometry>
        </mxCell>
        <mxCell id="7-T27TM8aywJfX2mCg_o-2" value="" style="endArrow=none;html=1;rounded=0;" parent="1fD0BJYSQJ9lnDHRLfOu-17" edge="1">
          <mxGeometry width="50" height="50" relative="1" as="geometry">
            <mxPoint x="293" y="580" as="sourcePoint" />
            <mxPoint x="333" y="540" as="targetPoint" />
          </mxGeometry>
        </mxCell>
        <mxCell id="7-T27TM8aywJfX2mCg_o-3" value="" style="endArrow=none;html=1;rounded=0;" parent="1fD0BJYSQJ9lnDHRLfOu-17" edge="1">
          <mxGeometry width="50" height="50" relative="1" as="geometry">
            <mxPoint x="133" y="500" as="sourcePoint" />
            <mxPoint x="293" y="500" as="targetPoint" />
          </mxGeometry>
        </mxCell>
        <mxCell id="7-T27TM8aywJfX2mCg_o-4" value="" style="endArrow=none;html=1;rounded=0;" parent="1fD0BJYSQJ9lnDHRLfOu-17" edge="1">
          <mxGeometry width="50" height="50" relative="1" as="geometry">
            <mxPoint x="133" y="580" as="sourcePoint" />
            <mxPoint x="293" y="580" as="targetPoint" />
          </mxGeometry>
        </mxCell>
        <mxCell id="7-T27TM8aywJfX2mCg_o-5" value="" style="endArrow=none;html=1;rounded=0;" parent="1fD0BJYSQJ9lnDHRLfOu-17" edge="1">
          <mxGeometry width="50" height="50" relative="1" as="geometry">
            <mxPoint x="333" y="540" as="sourcePoint" />
            <mxPoint x="293" y="500" as="targetPoint" />
          </mxGeometry>
        </mxCell>
        <mxCell id="7-T27TM8aywJfX2mCg_o-6" value="" style="endArrow=none;html=1;rounded=0;" parent="1fD0BJYSQJ9lnDHRLfOu-17" edge="1">
          <mxGeometry width="50" height="50" relative="1" as="geometry">
            <mxPoint x="133" y="580" as="sourcePoint" />
            <mxPoint x="93" y="540" as="targetPoint" />
          </mxGeometry>
        </mxCell>
        <mxCell id="7-T27TM8aywJfX2mCg_o-7" value="" style="endArrow=none;html=1;rounded=0;" parent="1fD0BJYSQJ9lnDHRLfOu-17" edge="1">
          <mxGeometry width="50" height="50" relative="1" as="geometry">
            <mxPoint x="93" y="540" as="sourcePoint" />
            <mxPoint x="333" y="540" as="targetPoint" />
          </mxGeometry>
        </mxCell>
        <mxCell id="7-T27TM8aywJfX2mCg_o-8" value="" style="endArrow=none;html=1;rounded=0;" parent="1fD0BJYSQJ9lnDHRLfOu-17" edge="1">
          <mxGeometry width="50" height="50" relative="1" as="geometry">
            <mxPoint x="213" y="580" as="sourcePoint" />
            <mxPoint x="213" y="540" as="targetPoint" />
          </mxGeometry>
        </mxCell>
        <mxCell id="7-T27TM8aywJfX2mCg_o-9" value="OBTENER_BIMESTRE" style="text;html=1;align=center;verticalAlign=middle;resizable=0;points=[];autosize=1;strokeColor=none;fillColor=none;" parent="1fD0BJYSQJ9lnDHRLfOu-17" vertex="1">
          <mxGeometry x="138" y="508" width="150" height="30" as="geometry" />
        </mxCell>
        <mxCell id="7-T27TM8aywJfX2mCg_o-10" value="MES" style="text;html=1;align=center;verticalAlign=middle;resizable=0;points=[];autosize=1;strokeColor=none;fillColor=none;" parent="1fD0BJYSQJ9lnDHRLfOu-17" vertex="1">
          <mxGeometry x="138" y="548" width="50" height="30" as="geometry" />
        </mxCell>
        <mxCell id="7-T27TM8aywJfX2mCg_o-11" value="B =" style="text;html=1;align=center;verticalAlign=middle;whiteSpace=wrap;rounded=0;" parent="1fD0BJYSQJ9lnDHRLfOu-17" vertex="1">
          <mxGeometry x="40" y="526" width="60" height="30" as="geometry" />
        </mxCell>
        <mxCell id="7-T27TM8aywJfX2mCg_o-12" value="-" style="text;html=1;align=center;verticalAlign=middle;resizable=0;points=[];autosize=1;strokeColor=none;fillColor=none;" parent="1fD0BJYSQJ9lnDHRLfOu-17" vertex="1">
          <mxGeometry x="233" y="548" width="30" height="30" as="geometry" />
        </mxCell>
        <mxCell id="7-T27TM8aywJfX2mCg_o-13" value="B TIENE VALORES DEL 1 AL 6" style="text;html=1;align=center;verticalAlign=middle;resizable=0;points=[];autosize=1;strokeColor=none;fillColor=none;" parent="1fD0BJYSQJ9lnDHRLfOu-17" vertex="1">
          <mxGeometry x="348" y="526" width="190" height="30" as="geometry" />
        </mxCell>
        <mxCell id="7-T27TM8aywJfX2mCg_o-14" value="VBIM [&amp;nbsp; B - 1] +=&amp;nbsp; CANTPAS" style="rounded=0;whiteSpace=wrap;html=1;" parent="1fD0BJYSQJ9lnDHRLfOu-17" vertex="1">
          <mxGeometry x="100" y="600" width="210" height="20" as="geometry" />
        </mxCell>
        <mxCell id="1fD0BJYSQJ9lnDHRLfOu-18" value="" style="shape=trapezoid;perimeter=trapezoidPerimeter;whiteSpace=wrap;html=1;fixedSize=1;rotation=-180;" parent="1" vertex="1">
          <mxGeometry x="280" y="900" width="186" height="40" as="geometry" />
        </mxCell>
        <mxCell id="1fD0BJYSQJ9lnDHRLfOu-19" value="CLI,MES,TOUR,CANTPAS, FP" style="text;html=1;align=center;verticalAlign=middle;whiteSpace=wrap;rounded=0;" parent="1" vertex="1">
          <mxGeometry x="343" y="905" width="60" height="30" as="geometry" />
        </mxCell>
        <mxCell id="1fD0BJYSQJ9lnDHRLfOu-28" value="" style="endArrow=none;html=1;rounded=0;exitX=0.002;exitY=0.037;exitDx=0;exitDy=0;exitPerimeter=0;entryX=0.997;entryY=0.037;entryDx=0;entryDy=0;entryPerimeter=0;" parent="1" source="1fD0BJYSQJ9lnDHRLfOu-17" target="1fD0BJYSQJ9lnDHRLfOu-17" edge="1">
          <mxGeometry width="50" height="50" relative="1" as="geometry">
            <mxPoint x="460" y="1160" as="sourcePoint" />
            <mxPoint x="510" y="1110" as="targetPoint" />
            <Array as="points">
              <mxPoint x="460" y="980" />
            </Array>
          </mxGeometry>
        </mxCell>
        <mxCell id="1fD0BJYSQJ9lnDHRLfOu-34" value="" style="rounded=0;whiteSpace=wrap;html=1;" parent="1" vertex="1">
          <mxGeometry x="310" y="330" width="120" height="30" as="geometry" />
        </mxCell>
        <mxCell id="1fD0BJYSQJ9lnDHRLfOu-35" value="INT VCPV[20]" style="text;html=1;align=center;verticalAlign=middle;whiteSpace=wrap;rounded=0;" parent="1" vertex="1">
          <mxGeometry x="320" y="330" width="110" height="30" as="geometry" />
        </mxCell>
        <mxCell id="8toKd3_DE6rP6kfDc0lE-9" value="" style="endArrow=none;html=1;rounded=0;" parent="1" edge="1">
          <mxGeometry width="50" height="50" relative="1" as="geometry">
            <mxPoint x="250" y="410" as="sourcePoint" />
            <mxPoint x="290" y="370" as="targetPoint" />
          </mxGeometry>
        </mxCell>
        <mxCell id="8toKd3_DE6rP6kfDc0lE-10" value="" style="endArrow=none;html=1;rounded=0;" parent="1" edge="1">
          <mxGeometry width="50" height="50" relative="1" as="geometry">
            <mxPoint x="450" y="450" as="sourcePoint" />
            <mxPoint x="490" y="410" as="targetPoint" />
          </mxGeometry>
        </mxCell>
        <mxCell id="8toKd3_DE6rP6kfDc0lE-11" value="" style="endArrow=none;html=1;rounded=0;" parent="1" edge="1">
          <mxGeometry width="50" height="50" relative="1" as="geometry">
            <mxPoint x="290" y="370" as="sourcePoint" />
            <mxPoint x="450" y="370" as="targetPoint" />
          </mxGeometry>
        </mxCell>
        <mxCell id="8toKd3_DE6rP6kfDc0lE-12" value="" style="endArrow=none;html=1;rounded=0;" parent="1" edge="1">
          <mxGeometry width="50" height="50" relative="1" as="geometry">
            <mxPoint x="290" y="450" as="sourcePoint" />
            <mxPoint x="450" y="450" as="targetPoint" />
          </mxGeometry>
        </mxCell>
        <mxCell id="8toKd3_DE6rP6kfDc0lE-13" value="" style="endArrow=none;html=1;rounded=0;" parent="1" edge="1">
          <mxGeometry width="50" height="50" relative="1" as="geometry">
            <mxPoint x="490" y="410" as="sourcePoint" />
            <mxPoint x="450" y="370" as="targetPoint" />
          </mxGeometry>
        </mxCell>
        <mxCell id="8toKd3_DE6rP6kfDc0lE-14" value="" style="endArrow=none;html=1;rounded=0;" parent="1" edge="1">
          <mxGeometry width="50" height="50" relative="1" as="geometry">
            <mxPoint x="290" y="450" as="sourcePoint" />
            <mxPoint x="250" y="410" as="targetPoint" />
          </mxGeometry>
        </mxCell>
        <mxCell id="8toKd3_DE6rP6kfDc0lE-15" value="" style="endArrow=none;html=1;rounded=0;" parent="1" edge="1">
          <mxGeometry width="50" height="50" relative="1" as="geometry">
            <mxPoint x="250" y="410" as="sourcePoint" />
            <mxPoint x="490" y="410" as="targetPoint" />
          </mxGeometry>
        </mxCell>
        <mxCell id="8toKd3_DE6rP6kfDc0lE-16" value="" style="endArrow=none;html=1;rounded=0;" parent="1" edge="1">
          <mxGeometry width="50" height="50" relative="1" as="geometry">
            <mxPoint x="370" y="450" as="sourcePoint" />
            <mxPoint x="370" y="410" as="targetPoint" />
          </mxGeometry>
        </mxCell>
        <mxCell id="8toKd3_DE6rP6kfDc0lE-17" value="PONERCEROS" style="text;html=1;align=center;verticalAlign=middle;resizable=0;points=[];autosize=1;strokeColor=none;fillColor=none;" parent="1" vertex="1">
          <mxGeometry x="315" y="378" width="110" height="30" as="geometry" />
        </mxCell>
        <mxCell id="8toKd3_DE6rP6kfDc0lE-18" value="VCPV" style="text;html=1;align=center;verticalAlign=middle;resizable=0;points=[];autosize=1;strokeColor=none;fillColor=none;" parent="1" vertex="1">
          <mxGeometry x="370" y="418" width="60" height="30" as="geometry" />
        </mxCell>
        <mxCell id="8toKd3_DE6rP6kfDc0lE-19" value="20" style="text;html=1;align=center;verticalAlign=middle;resizable=0;points=[];autosize=1;strokeColor=none;fillColor=none;" parent="1" vertex="1">
          <mxGeometry x="300" y="418" width="40" height="30" as="geometry" />
        </mxCell>
        <mxCell id="8toKd3_DE6rP6kfDc0lE-23" value="" style="endArrow=none;html=1;rounded=0;" parent="1" edge="1">
          <mxGeometry width="50" height="50" relative="1" as="geometry">
            <mxPoint x="283" y="1780" as="sourcePoint" />
            <mxPoint x="323" y="1740" as="targetPoint" />
          </mxGeometry>
        </mxCell>
        <mxCell id="8toKd3_DE6rP6kfDc0lE-24" value="" style="endArrow=none;html=1;rounded=0;" parent="1" edge="1">
          <mxGeometry width="50" height="50" relative="1" as="geometry">
            <mxPoint x="483" y="1820" as="sourcePoint" />
            <mxPoint x="523" y="1780" as="targetPoint" />
          </mxGeometry>
        </mxCell>
        <mxCell id="8toKd3_DE6rP6kfDc0lE-25" value="" style="endArrow=none;html=1;rounded=0;" parent="1" edge="1">
          <mxGeometry width="50" height="50" relative="1" as="geometry">
            <mxPoint x="323" y="1740" as="sourcePoint" />
            <mxPoint x="483" y="1740" as="targetPoint" />
          </mxGeometry>
        </mxCell>
        <mxCell id="8toKd3_DE6rP6kfDc0lE-26" value="" style="endArrow=none;html=1;rounded=0;" parent="1" edge="1">
          <mxGeometry width="50" height="50" relative="1" as="geometry">
            <mxPoint x="323" y="1820" as="sourcePoint" />
            <mxPoint x="483" y="1820" as="targetPoint" />
          </mxGeometry>
        </mxCell>
        <mxCell id="8toKd3_DE6rP6kfDc0lE-27" value="" style="endArrow=none;html=1;rounded=0;" parent="1" edge="1">
          <mxGeometry width="50" height="50" relative="1" as="geometry">
            <mxPoint x="523" y="1780" as="sourcePoint" />
            <mxPoint x="483" y="1740" as="targetPoint" />
          </mxGeometry>
        </mxCell>
        <mxCell id="8toKd3_DE6rP6kfDc0lE-28" value="" style="endArrow=none;html=1;rounded=0;" parent="1" edge="1">
          <mxGeometry width="50" height="50" relative="1" as="geometry">
            <mxPoint x="323" y="1820" as="sourcePoint" />
            <mxPoint x="283" y="1780" as="targetPoint" />
          </mxGeometry>
        </mxCell>
        <mxCell id="8toKd3_DE6rP6kfDc0lE-29" value="" style="endArrow=none;html=1;rounded=0;" parent="1" edge="1">
          <mxGeometry width="50" height="50" relative="1" as="geometry">
            <mxPoint x="283" y="1780" as="sourcePoint" />
            <mxPoint x="523" y="1780" as="targetPoint" />
          </mxGeometry>
        </mxCell>
        <mxCell id="8toKd3_DE6rP6kfDc0lE-30" value="" style="endArrow=none;html=1;rounded=0;" parent="1" edge="1">
          <mxGeometry width="50" height="50" relative="1" as="geometry">
            <mxPoint x="403" y="1820" as="sourcePoint" />
            <mxPoint x="403" y="1780" as="targetPoint" />
          </mxGeometry>
        </mxCell>
        <mxCell id="8toKd3_DE6rP6kfDc0lE-31" value="MOSTRAR_PTOA" style="text;html=1;align=center;verticalAlign=middle;resizable=0;points=[];autosize=1;strokeColor=none;fillColor=none;" parent="1" vertex="1">
          <mxGeometry x="343" y="1748" width="120" height="30" as="geometry" />
        </mxCell>
        <mxCell id="8toKd3_DE6rP6kfDc0lE-32" value="VCPV" style="text;html=1;align=center;verticalAlign=middle;resizable=0;points=[];autosize=1;strokeColor=none;fillColor=none;" parent="1" vertex="1">
          <mxGeometry x="403" y="1788" width="60" height="30" as="geometry" />
        </mxCell>
        <mxCell id="8toKd3_DE6rP6kfDc0lE-33" value="20" style="text;html=1;align=center;verticalAlign=middle;resizable=0;points=[];autosize=1;strokeColor=none;fillColor=none;" parent="1" vertex="1">
          <mxGeometry x="333" y="1788" width="40" height="30" as="geometry" />
        </mxCell>
        <mxCell id="25qTCIS9DttSv9UldIgT-1" value="" style="rounded=0;whiteSpace=wrap;html=1;" parent="1" vertex="1">
          <mxGeometry x="315" y="460" width="120" height="30" as="geometry" />
        </mxCell>
        <mxCell id="25qTCIS9DttSv9UldIgT-2" value="INT VCT[50]" style="text;html=1;align=center;verticalAlign=middle;whiteSpace=wrap;rounded=0;" parent="1" vertex="1">
          <mxGeometry x="325" y="460" width="110" height="30" as="geometry" />
        </mxCell>
        <mxCell id="25qTCIS9DttSv9UldIgT-3" value="" style="endArrow=none;html=1;rounded=0;" parent="1" edge="1">
          <mxGeometry width="50" height="50" relative="1" as="geometry">
            <mxPoint x="255" y="540" as="sourcePoint" />
            <mxPoint x="295" y="500" as="targetPoint" />
          </mxGeometry>
        </mxCell>
        <mxCell id="25qTCIS9DttSv9UldIgT-4" value="" style="endArrow=none;html=1;rounded=0;" parent="1" edge="1">
          <mxGeometry width="50" height="50" relative="1" as="geometry">
            <mxPoint x="455" y="580" as="sourcePoint" />
            <mxPoint x="495" y="540" as="targetPoint" />
          </mxGeometry>
        </mxCell>
        <mxCell id="25qTCIS9DttSv9UldIgT-5" value="" style="endArrow=none;html=1;rounded=0;" parent="1" edge="1">
          <mxGeometry width="50" height="50" relative="1" as="geometry">
            <mxPoint x="295" y="500" as="sourcePoint" />
            <mxPoint x="455" y="500" as="targetPoint" />
          </mxGeometry>
        </mxCell>
        <mxCell id="25qTCIS9DttSv9UldIgT-6" value="" style="endArrow=none;html=1;rounded=0;" parent="1" edge="1">
          <mxGeometry width="50" height="50" relative="1" as="geometry">
            <mxPoint x="295" y="580" as="sourcePoint" />
            <mxPoint x="455" y="580" as="targetPoint" />
          </mxGeometry>
        </mxCell>
        <mxCell id="25qTCIS9DttSv9UldIgT-7" value="" style="endArrow=none;html=1;rounded=0;" parent="1" edge="1">
          <mxGeometry width="50" height="50" relative="1" as="geometry">
            <mxPoint x="495" y="540" as="sourcePoint" />
            <mxPoint x="455" y="500" as="targetPoint" />
          </mxGeometry>
        </mxCell>
        <mxCell id="25qTCIS9DttSv9UldIgT-8" value="" style="endArrow=none;html=1;rounded=0;" parent="1" edge="1">
          <mxGeometry width="50" height="50" relative="1" as="geometry">
            <mxPoint x="295" y="580" as="sourcePoint" />
            <mxPoint x="255" y="540" as="targetPoint" />
          </mxGeometry>
        </mxCell>
        <mxCell id="25qTCIS9DttSv9UldIgT-9" value="" style="endArrow=none;html=1;rounded=0;" parent="1" edge="1">
          <mxGeometry width="50" height="50" relative="1" as="geometry">
            <mxPoint x="255" y="540" as="sourcePoint" />
            <mxPoint x="495" y="540" as="targetPoint" />
          </mxGeometry>
        </mxCell>
        <mxCell id="25qTCIS9DttSv9UldIgT-10" value="" style="endArrow=none;html=1;rounded=0;" parent="1" edge="1">
          <mxGeometry width="50" height="50" relative="1" as="geometry">
            <mxPoint x="375" y="580" as="sourcePoint" />
            <mxPoint x="375" y="540" as="targetPoint" />
          </mxGeometry>
        </mxCell>
        <mxCell id="25qTCIS9DttSv9UldIgT-11" value="PONERCEROS" style="text;html=1;align=center;verticalAlign=middle;resizable=0;points=[];autosize=1;strokeColor=none;fillColor=none;" parent="1" vertex="1">
          <mxGeometry x="320" y="508" width="110" height="30" as="geometry" />
        </mxCell>
        <mxCell id="25qTCIS9DttSv9UldIgT-12" value="VCT" style="text;html=1;align=center;verticalAlign=middle;resizable=0;points=[];autosize=1;strokeColor=none;fillColor=none;" parent="1" vertex="1">
          <mxGeometry x="380" y="548" width="50" height="30" as="geometry" />
        </mxCell>
        <mxCell id="25qTCIS9DttSv9UldIgT-13" value="50" style="text;html=1;align=center;verticalAlign=middle;resizable=0;points=[];autosize=1;strokeColor=none;fillColor=none;" parent="1" vertex="1">
          <mxGeometry x="305" y="548" width="40" height="30" as="geometry" />
        </mxCell>
        <mxCell id="25qTCIS9DttSv9UldIgT-15" value="" style="endArrow=none;html=1;rounded=0;" parent="1" edge="1">
          <mxGeometry width="50" height="50" relative="1" as="geometry">
            <mxPoint x="280" y="1880" as="sourcePoint" />
            <mxPoint x="320" y="1840" as="targetPoint" />
          </mxGeometry>
        </mxCell>
        <mxCell id="25qTCIS9DttSv9UldIgT-16" value="" style="endArrow=none;html=1;rounded=0;" parent="1" edge="1">
          <mxGeometry width="50" height="50" relative="1" as="geometry">
            <mxPoint x="480" y="1920" as="sourcePoint" />
            <mxPoint x="520" y="1880" as="targetPoint" />
          </mxGeometry>
        </mxCell>
        <mxCell id="25qTCIS9DttSv9UldIgT-17" value="" style="endArrow=none;html=1;rounded=0;" parent="1" edge="1">
          <mxGeometry width="50" height="50" relative="1" as="geometry">
            <mxPoint x="320" y="1840" as="sourcePoint" />
            <mxPoint x="480" y="1840" as="targetPoint" />
          </mxGeometry>
        </mxCell>
        <mxCell id="25qTCIS9DttSv9UldIgT-18" value="" style="endArrow=none;html=1;rounded=0;" parent="1" edge="1">
          <mxGeometry width="50" height="50" relative="1" as="geometry">
            <mxPoint x="320" y="1920" as="sourcePoint" />
            <mxPoint x="480" y="1920" as="targetPoint" />
          </mxGeometry>
        </mxCell>
        <mxCell id="25qTCIS9DttSv9UldIgT-19" value="" style="endArrow=none;html=1;rounded=0;" parent="1" edge="1">
          <mxGeometry width="50" height="50" relative="1" as="geometry">
            <mxPoint x="520" y="1880" as="sourcePoint" />
            <mxPoint x="480" y="1840" as="targetPoint" />
          </mxGeometry>
        </mxCell>
        <mxCell id="25qTCIS9DttSv9UldIgT-20" value="" style="endArrow=none;html=1;rounded=0;" parent="1" edge="1">
          <mxGeometry width="50" height="50" relative="1" as="geometry">
            <mxPoint x="320" y="1920" as="sourcePoint" />
            <mxPoint x="280" y="1880" as="targetPoint" />
          </mxGeometry>
        </mxCell>
        <mxCell id="25qTCIS9DttSv9UldIgT-21" value="" style="endArrow=none;html=1;rounded=0;" parent="1" edge="1">
          <mxGeometry width="50" height="50" relative="1" as="geometry">
            <mxPoint x="280" y="1880" as="sourcePoint" />
            <mxPoint x="520" y="1880" as="targetPoint" />
          </mxGeometry>
        </mxCell>
        <mxCell id="25qTCIS9DttSv9UldIgT-22" value="" style="endArrow=none;html=1;rounded=0;" parent="1" edge="1">
          <mxGeometry width="50" height="50" relative="1" as="geometry">
            <mxPoint x="400" y="1920" as="sourcePoint" />
            <mxPoint x="400" y="1880" as="targetPoint" />
          </mxGeometry>
        </mxCell>
        <mxCell id="25qTCIS9DttSv9UldIgT-23" value="MOSTRAR_PTOB" style="text;html=1;align=center;verticalAlign=middle;resizable=0;points=[];autosize=1;strokeColor=none;fillColor=none;" parent="1" vertex="1">
          <mxGeometry x="340" y="1848" width="120" height="30" as="geometry" />
        </mxCell>
        <mxCell id="25qTCIS9DttSv9UldIgT-24" value="VCT" style="text;html=1;align=center;verticalAlign=middle;resizable=0;points=[];autosize=1;strokeColor=none;fillColor=none;" parent="1" vertex="1">
          <mxGeometry x="405" y="1888" width="50" height="30" as="geometry" />
        </mxCell>
        <mxCell id="25qTCIS9DttSv9UldIgT-25" value="50" style="text;html=1;align=center;verticalAlign=middle;resizable=0;points=[];autosize=1;strokeColor=none;fillColor=none;" parent="1" vertex="1">
          <mxGeometry x="330" y="1888" width="40" height="30" as="geometry" />
        </mxCell>
        <mxCell id="_38f6_x6W5TP_OIeZ4oF-15" value="" style="rounded=0;whiteSpace=wrap;html=1;" parent="1" vertex="1">
          <mxGeometry x="310" y="600" width="120" height="30" as="geometry" />
        </mxCell>
        <mxCell id="_38f6_x6W5TP_OIeZ4oF-16" value="FLOAT VTRIM[4]" style="text;html=1;align=center;verticalAlign=middle;whiteSpace=wrap;rounded=0;" parent="1" vertex="1">
          <mxGeometry x="320" y="600" width="110" height="30" as="geometry" />
        </mxCell>
        <mxCell id="_38f6_x6W5TP_OIeZ4oF-17" value="" style="endArrow=none;html=1;rounded=0;" parent="1" edge="1">
          <mxGeometry width="50" height="50" relative="1" as="geometry">
            <mxPoint x="250" y="680" as="sourcePoint" />
            <mxPoint x="290" y="640" as="targetPoint" />
          </mxGeometry>
        </mxCell>
        <mxCell id="_38f6_x6W5TP_OIeZ4oF-18" value="" style="endArrow=none;html=1;rounded=0;" parent="1" edge="1">
          <mxGeometry width="50" height="50" relative="1" as="geometry">
            <mxPoint x="450" y="720" as="sourcePoint" />
            <mxPoint x="490" y="680" as="targetPoint" />
          </mxGeometry>
        </mxCell>
        <mxCell id="_38f6_x6W5TP_OIeZ4oF-19" value="" style="endArrow=none;html=1;rounded=0;" parent="1" edge="1">
          <mxGeometry width="50" height="50" relative="1" as="geometry">
            <mxPoint x="290" y="640" as="sourcePoint" />
            <mxPoint x="450" y="640" as="targetPoint" />
          </mxGeometry>
        </mxCell>
        <mxCell id="_38f6_x6W5TP_OIeZ4oF-20" value="" style="endArrow=none;html=1;rounded=0;" parent="1" edge="1">
          <mxGeometry width="50" height="50" relative="1" as="geometry">
            <mxPoint x="290" y="720" as="sourcePoint" />
            <mxPoint x="450" y="720" as="targetPoint" />
          </mxGeometry>
        </mxCell>
        <mxCell id="_38f6_x6W5TP_OIeZ4oF-21" value="" style="endArrow=none;html=1;rounded=0;" parent="1" edge="1">
          <mxGeometry width="50" height="50" relative="1" as="geometry">
            <mxPoint x="490" y="680" as="sourcePoint" />
            <mxPoint x="450" y="640" as="targetPoint" />
          </mxGeometry>
        </mxCell>
        <mxCell id="_38f6_x6W5TP_OIeZ4oF-22" value="" style="endArrow=none;html=1;rounded=0;" parent="1" edge="1">
          <mxGeometry width="50" height="50" relative="1" as="geometry">
            <mxPoint x="290" y="720" as="sourcePoint" />
            <mxPoint x="250" y="680" as="targetPoint" />
          </mxGeometry>
        </mxCell>
        <mxCell id="_38f6_x6W5TP_OIeZ4oF-23" value="" style="endArrow=none;html=1;rounded=0;" parent="1" edge="1">
          <mxGeometry width="50" height="50" relative="1" as="geometry">
            <mxPoint x="250" y="680" as="sourcePoint" />
            <mxPoint x="490" y="680" as="targetPoint" />
          </mxGeometry>
        </mxCell>
        <mxCell id="_38f6_x6W5TP_OIeZ4oF-24" value="" style="endArrow=none;html=1;rounded=0;" parent="1" edge="1">
          <mxGeometry width="50" height="50" relative="1" as="geometry">
            <mxPoint x="370" y="720" as="sourcePoint" />
            <mxPoint x="370" y="680" as="targetPoint" />
          </mxGeometry>
        </mxCell>
        <mxCell id="_38f6_x6W5TP_OIeZ4oF-25" value="PONERCEROS" style="text;html=1;align=center;verticalAlign=middle;resizable=0;points=[];autosize=1;strokeColor=none;fillColor=none;" parent="1" vertex="1">
          <mxGeometry x="315" y="648" width="110" height="30" as="geometry" />
        </mxCell>
        <mxCell id="_38f6_x6W5TP_OIeZ4oF-26" value="VTRIM" style="text;html=1;align=center;verticalAlign=middle;resizable=0;points=[];autosize=1;strokeColor=none;fillColor=none;" parent="1" vertex="1">
          <mxGeometry x="370" y="688" width="60" height="30" as="geometry" />
        </mxCell>
        <mxCell id="_38f6_x6W5TP_OIeZ4oF-27" value="4" style="text;html=1;align=center;verticalAlign=middle;resizable=0;points=[];autosize=1;strokeColor=none;fillColor=none;" parent="1" vertex="1">
          <mxGeometry x="305" y="688" width="30" height="30" as="geometry" />
        </mxCell>
        <mxCell id="t1FjJ-dCxHpJVIbKeD3q-3" value="" style="endArrow=none;html=1;rounded=0;" parent="1" edge="1">
          <mxGeometry width="50" height="50" relative="1" as="geometry">
            <mxPoint x="286.5" y="1980" as="sourcePoint" />
            <mxPoint x="326.5" y="1940" as="targetPoint" />
          </mxGeometry>
        </mxCell>
        <mxCell id="t1FjJ-dCxHpJVIbKeD3q-4" value="" style="endArrow=none;html=1;rounded=0;" parent="1" edge="1">
          <mxGeometry width="50" height="50" relative="1" as="geometry">
            <mxPoint x="486.5" y="2020" as="sourcePoint" />
            <mxPoint x="526.5" y="1980" as="targetPoint" />
          </mxGeometry>
        </mxCell>
        <mxCell id="t1FjJ-dCxHpJVIbKeD3q-5" value="" style="endArrow=none;html=1;rounded=0;" parent="1" edge="1">
          <mxGeometry width="50" height="50" relative="1" as="geometry">
            <mxPoint x="326.5" y="1940" as="sourcePoint" />
            <mxPoint x="486.5" y="1940" as="targetPoint" />
          </mxGeometry>
        </mxCell>
        <mxCell id="t1FjJ-dCxHpJVIbKeD3q-6" value="" style="endArrow=none;html=1;rounded=0;" parent="1" edge="1">
          <mxGeometry width="50" height="50" relative="1" as="geometry">
            <mxPoint x="326.5" y="2020" as="sourcePoint" />
            <mxPoint x="486.5" y="2020" as="targetPoint" />
          </mxGeometry>
        </mxCell>
        <mxCell id="t1FjJ-dCxHpJVIbKeD3q-7" value="" style="endArrow=none;html=1;rounded=0;" parent="1" edge="1">
          <mxGeometry width="50" height="50" relative="1" as="geometry">
            <mxPoint x="526.5" y="1980" as="sourcePoint" />
            <mxPoint x="486.5" y="1940" as="targetPoint" />
          </mxGeometry>
        </mxCell>
        <mxCell id="t1FjJ-dCxHpJVIbKeD3q-8" value="" style="endArrow=none;html=1;rounded=0;" parent="1" edge="1">
          <mxGeometry width="50" height="50" relative="1" as="geometry">
            <mxPoint x="326.5" y="2020" as="sourcePoint" />
            <mxPoint x="286.5" y="1980" as="targetPoint" />
          </mxGeometry>
        </mxCell>
        <mxCell id="t1FjJ-dCxHpJVIbKeD3q-9" value="" style="endArrow=none;html=1;rounded=0;" parent="1" edge="1">
          <mxGeometry width="50" height="50" relative="1" as="geometry">
            <mxPoint x="286.5" y="1980" as="sourcePoint" />
            <mxPoint x="526.5" y="1980" as="targetPoint" />
          </mxGeometry>
        </mxCell>
        <mxCell id="t1FjJ-dCxHpJVIbKeD3q-10" value="" style="endArrow=none;html=1;rounded=0;" parent="1" edge="1">
          <mxGeometry width="50" height="50" relative="1" as="geometry">
            <mxPoint x="406.5" y="2020" as="sourcePoint" />
            <mxPoint x="406.5" y="1980" as="targetPoint" />
          </mxGeometry>
        </mxCell>
        <mxCell id="t1FjJ-dCxHpJVIbKeD3q-11" value="MOSTRAR_PTOC" style="text;html=1;align=center;verticalAlign=middle;resizable=0;points=[];autosize=1;strokeColor=none;fillColor=none;" parent="1" vertex="1">
          <mxGeometry x="346.5" y="1948" width="120" height="30" as="geometry" />
        </mxCell>
        <mxCell id="t1FjJ-dCxHpJVIbKeD3q-12" value="VTRIM" style="text;html=1;align=center;verticalAlign=middle;resizable=0;points=[];autosize=1;strokeColor=none;fillColor=none;" parent="1" vertex="1">
          <mxGeometry x="406.5" y="1988" width="60" height="30" as="geometry" />
        </mxCell>
        <mxCell id="t1FjJ-dCxHpJVIbKeD3q-13" value="4" style="text;html=1;align=center;verticalAlign=middle;resizable=0;points=[];autosize=1;strokeColor=none;fillColor=none;" parent="1" vertex="1">
          <mxGeometry x="341.5" y="1988" width="30" height="30" as="geometry" />
        </mxCell>
        <mxCell id="7-T27TM8aywJfX2mCg_o-15" value="" style="rounded=0;whiteSpace=wrap;html=1;" parent="1" vertex="1">
          <mxGeometry x="310" y="740" width="120" height="30" as="geometry" />
        </mxCell>
        <mxCell id="7-T27TM8aywJfX2mCg_o-16" value="FLOAT VBIM[6]" style="text;html=1;align=center;verticalAlign=middle;whiteSpace=wrap;rounded=0;" parent="1" vertex="1">
          <mxGeometry x="320" y="740" width="110" height="30" as="geometry" />
        </mxCell>
        <mxCell id="7-T27TM8aywJfX2mCg_o-17" value="" style="endArrow=none;html=1;rounded=0;" parent="1" edge="1">
          <mxGeometry width="50" height="50" relative="1" as="geometry">
            <mxPoint x="250" y="820" as="sourcePoint" />
            <mxPoint x="290" y="780" as="targetPoint" />
          </mxGeometry>
        </mxCell>
        <mxCell id="7-T27TM8aywJfX2mCg_o-18" value="" style="endArrow=none;html=1;rounded=0;" parent="1" edge="1">
          <mxGeometry width="50" height="50" relative="1" as="geometry">
            <mxPoint x="450" y="860" as="sourcePoint" />
            <mxPoint x="490" y="820" as="targetPoint" />
          </mxGeometry>
        </mxCell>
        <mxCell id="7-T27TM8aywJfX2mCg_o-19" value="" style="endArrow=none;html=1;rounded=0;" parent="1" edge="1">
          <mxGeometry width="50" height="50" relative="1" as="geometry">
            <mxPoint x="290" y="780" as="sourcePoint" />
            <mxPoint x="450" y="780" as="targetPoint" />
          </mxGeometry>
        </mxCell>
        <mxCell id="7-T27TM8aywJfX2mCg_o-20" value="" style="endArrow=none;html=1;rounded=0;" parent="1" edge="1">
          <mxGeometry width="50" height="50" relative="1" as="geometry">
            <mxPoint x="290" y="860" as="sourcePoint" />
            <mxPoint x="450" y="860" as="targetPoint" />
          </mxGeometry>
        </mxCell>
        <mxCell id="7-T27TM8aywJfX2mCg_o-21" value="" style="endArrow=none;html=1;rounded=0;" parent="1" edge="1">
          <mxGeometry width="50" height="50" relative="1" as="geometry">
            <mxPoint x="490" y="820" as="sourcePoint" />
            <mxPoint x="450" y="780" as="targetPoint" />
          </mxGeometry>
        </mxCell>
        <mxCell id="7-T27TM8aywJfX2mCg_o-22" value="" style="endArrow=none;html=1;rounded=0;" parent="1" edge="1">
          <mxGeometry width="50" height="50" relative="1" as="geometry">
            <mxPoint x="290" y="860" as="sourcePoint" />
            <mxPoint x="250" y="820" as="targetPoint" />
          </mxGeometry>
        </mxCell>
        <mxCell id="7-T27TM8aywJfX2mCg_o-23" value="" style="endArrow=none;html=1;rounded=0;" parent="1" edge="1">
          <mxGeometry width="50" height="50" relative="1" as="geometry">
            <mxPoint x="250" y="820" as="sourcePoint" />
            <mxPoint x="490" y="820" as="targetPoint" />
          </mxGeometry>
        </mxCell>
        <mxCell id="7-T27TM8aywJfX2mCg_o-24" value="" style="endArrow=none;html=1;rounded=0;" parent="1" edge="1">
          <mxGeometry width="50" height="50" relative="1" as="geometry">
            <mxPoint x="370" y="860" as="sourcePoint" />
            <mxPoint x="370" y="820" as="targetPoint" />
          </mxGeometry>
        </mxCell>
        <mxCell id="7-T27TM8aywJfX2mCg_o-25" value="PONERCEROS" style="text;html=1;align=center;verticalAlign=middle;resizable=0;points=[];autosize=1;strokeColor=none;fillColor=none;" parent="1" vertex="1">
          <mxGeometry x="315" y="788" width="110" height="30" as="geometry" />
        </mxCell>
        <mxCell id="7-T27TM8aywJfX2mCg_o-26" value="VBIM" style="text;html=1;align=center;verticalAlign=middle;resizable=0;points=[];autosize=1;strokeColor=none;fillColor=none;" parent="1" vertex="1">
          <mxGeometry x="375" y="828" width="50" height="30" as="geometry" />
        </mxCell>
        <mxCell id="7-T27TM8aywJfX2mCg_o-27" value="6" style="text;html=1;align=center;verticalAlign=middle;resizable=0;points=[];autosize=1;strokeColor=none;fillColor=none;" parent="1" vertex="1">
          <mxGeometry x="305" y="828" width="30" height="30" as="geometry" />
        </mxCell>
        <mxCell id="7-T27TM8aywJfX2mCg_o-28" value="" style="endArrow=none;html=1;rounded=0;" parent="1" edge="1">
          <mxGeometry width="50" height="50" relative="1" as="geometry">
            <mxPoint x="285" y="2090" as="sourcePoint" />
            <mxPoint x="325" y="2050" as="targetPoint" />
          </mxGeometry>
        </mxCell>
        <mxCell id="7-T27TM8aywJfX2mCg_o-29" value="" style="endArrow=none;html=1;rounded=0;" parent="1" edge="1">
          <mxGeometry width="50" height="50" relative="1" as="geometry">
            <mxPoint x="485" y="2130" as="sourcePoint" />
            <mxPoint x="525" y="2090" as="targetPoint" />
          </mxGeometry>
        </mxCell>
        <mxCell id="7-T27TM8aywJfX2mCg_o-30" value="" style="endArrow=none;html=1;rounded=0;" parent="1" edge="1">
          <mxGeometry width="50" height="50" relative="1" as="geometry">
            <mxPoint x="325" y="2050" as="sourcePoint" />
            <mxPoint x="485" y="2050" as="targetPoint" />
          </mxGeometry>
        </mxCell>
        <mxCell id="7-T27TM8aywJfX2mCg_o-31" value="" style="endArrow=none;html=1;rounded=0;" parent="1" edge="1">
          <mxGeometry width="50" height="50" relative="1" as="geometry">
            <mxPoint x="325" y="2130" as="sourcePoint" />
            <mxPoint x="485" y="2130" as="targetPoint" />
          </mxGeometry>
        </mxCell>
        <mxCell id="7-T27TM8aywJfX2mCg_o-32" value="" style="endArrow=none;html=1;rounded=0;" parent="1" edge="1">
          <mxGeometry width="50" height="50" relative="1" as="geometry">
            <mxPoint x="525" y="2090" as="sourcePoint" />
            <mxPoint x="485" y="2050" as="targetPoint" />
          </mxGeometry>
        </mxCell>
        <mxCell id="7-T27TM8aywJfX2mCg_o-33" value="" style="endArrow=none;html=1;rounded=0;" parent="1" edge="1">
          <mxGeometry width="50" height="50" relative="1" as="geometry">
            <mxPoint x="325" y="2130" as="sourcePoint" />
            <mxPoint x="285" y="2090" as="targetPoint" />
          </mxGeometry>
        </mxCell>
        <mxCell id="7-T27TM8aywJfX2mCg_o-34" value="" style="endArrow=none;html=1;rounded=0;" parent="1" edge="1">
          <mxGeometry width="50" height="50" relative="1" as="geometry">
            <mxPoint x="285" y="2090" as="sourcePoint" />
            <mxPoint x="525" y="2090" as="targetPoint" />
          </mxGeometry>
        </mxCell>
        <mxCell id="7-T27TM8aywJfX2mCg_o-35" value="" style="endArrow=none;html=1;rounded=0;" parent="1" edge="1">
          <mxGeometry width="50" height="50" relative="1" as="geometry">
            <mxPoint x="405" y="2130" as="sourcePoint" />
            <mxPoint x="405" y="2090" as="targetPoint" />
          </mxGeometry>
        </mxCell>
        <mxCell id="7-T27TM8aywJfX2mCg_o-36" value="MOSTRAR_PTOD" style="text;html=1;align=center;verticalAlign=middle;resizable=0;points=[];autosize=1;strokeColor=none;fillColor=none;" parent="1" vertex="1">
          <mxGeometry x="345" y="2058" width="120" height="30" as="geometry" />
        </mxCell>
        <mxCell id="7-T27TM8aywJfX2mCg_o-37" value="VBIM" style="text;html=1;align=center;verticalAlign=middle;resizable=0;points=[];autosize=1;strokeColor=none;fillColor=none;" parent="1" vertex="1">
          <mxGeometry x="410" y="2098" width="50" height="30" as="geometry" />
        </mxCell>
        <mxCell id="7-T27TM8aywJfX2mCg_o-38" value="6" style="text;html=1;align=center;verticalAlign=middle;resizable=0;points=[];autosize=1;strokeColor=none;fillColor=none;" parent="1" vertex="1">
          <mxGeometry x="340" y="2098" width="30" height="30" as="geometry" />
        </mxCell>
      </root>
    </mxGraphModel>
  </diagram>
  <diagram id="tvcUUPsQ5hLj_2xLZHna" name="FUNCIONES">
    <mxGraphModel dx="1434" dy="836" grid="1" gridSize="10" guides="1" tooltips="1" connect="1" arrows="1" fold="1" page="1" pageScale="1" pageWidth="827" pageHeight="1169" math="0" shadow="0">
      <root>
        <mxCell id="0" />
        <mxCell id="1" parent="0" />
        <mxCell id="RsoV_SLniFLfRWDVHro2-1" value="" style="endArrow=none;html=1;rounded=0;" parent="1" edge="1">
          <mxGeometry width="50" height="50" relative="1" as="geometry">
            <mxPoint x="40" y="80" as="sourcePoint" />
            <mxPoint x="80" y="40" as="targetPoint" />
          </mxGeometry>
        </mxCell>
        <mxCell id="RsoV_SLniFLfRWDVHro2-2" value="" style="endArrow=none;html=1;rounded=0;" parent="1" edge="1">
          <mxGeometry width="50" height="50" relative="1" as="geometry">
            <mxPoint x="240" y="120" as="sourcePoint" />
            <mxPoint x="280" y="80" as="targetPoint" />
          </mxGeometry>
        </mxCell>
        <mxCell id="RsoV_SLniFLfRWDVHro2-3" value="" style="endArrow=none;html=1;rounded=0;" parent="1" edge="1">
          <mxGeometry width="50" height="50" relative="1" as="geometry">
            <mxPoint x="80" y="40" as="sourcePoint" />
            <mxPoint x="240" y="40" as="targetPoint" />
          </mxGeometry>
        </mxCell>
        <mxCell id="RsoV_SLniFLfRWDVHro2-4" value="" style="endArrow=none;html=1;rounded=0;" parent="1" edge="1">
          <mxGeometry width="50" height="50" relative="1" as="geometry">
            <mxPoint x="80" y="120" as="sourcePoint" />
            <mxPoint x="240" y="120" as="targetPoint" />
          </mxGeometry>
        </mxCell>
        <mxCell id="RsoV_SLniFLfRWDVHro2-5" value="" style="endArrow=none;html=1;rounded=0;" parent="1" edge="1">
          <mxGeometry width="50" height="50" relative="1" as="geometry">
            <mxPoint x="280" y="80" as="sourcePoint" />
            <mxPoint x="240" y="40" as="targetPoint" />
          </mxGeometry>
        </mxCell>
        <mxCell id="RsoV_SLniFLfRWDVHro2-6" value="" style="endArrow=none;html=1;rounded=0;" parent="1" edge="1">
          <mxGeometry width="50" height="50" relative="1" as="geometry">
            <mxPoint x="80" y="120" as="sourcePoint" />
            <mxPoint x="40" y="80" as="targetPoint" />
          </mxGeometry>
        </mxCell>
        <mxCell id="RsoV_SLniFLfRWDVHro2-7" value="" style="endArrow=none;html=1;rounded=0;" parent="1" edge="1">
          <mxGeometry width="50" height="50" relative="1" as="geometry">
            <mxPoint x="40" y="80" as="sourcePoint" />
            <mxPoint x="280" y="80" as="targetPoint" />
          </mxGeometry>
        </mxCell>
        <mxCell id="RsoV_SLniFLfRWDVHro2-8" value="" style="endArrow=none;html=1;rounded=0;" parent="1" edge="1">
          <mxGeometry width="50" height="50" relative="1" as="geometry">
            <mxPoint x="160" y="120" as="sourcePoint" />
            <mxPoint x="160" y="80" as="targetPoint" />
          </mxGeometry>
        </mxCell>
        <mxCell id="RsoV_SLniFLfRWDVHro2-9" value="PONERCEROS" style="text;html=1;align=center;verticalAlign=middle;resizable=0;points=[];autosize=1;strokeColor=none;fillColor=none;" parent="1" vertex="1">
          <mxGeometry x="105" y="48" width="110" height="30" as="geometry" />
        </mxCell>
        <mxCell id="RsoV_SLniFLfRWDVHro2-10" value="V" style="text;html=1;align=center;verticalAlign=middle;resizable=0;points=[];autosize=1;strokeColor=none;fillColor=none;" parent="1" vertex="1">
          <mxGeometry x="175" y="88" width="30" height="30" as="geometry" />
        </mxCell>
        <mxCell id="RsoV_SLniFLfRWDVHro2-11" value="T" style="text;html=1;align=center;verticalAlign=middle;resizable=0;points=[];autosize=1;strokeColor=none;fillColor=none;" parent="1" vertex="1">
          <mxGeometry x="95" y="88" width="30" height="30" as="geometry" />
        </mxCell>
        <mxCell id="TP1zUc6pPUI-TAV0-HmN-1" value="" style="endArrow=none;html=1;rounded=0;" parent="1" edge="1">
          <mxGeometry width="50" height="50" relative="1" as="geometry">
            <mxPoint x="480" y="77" as="sourcePoint" />
            <mxPoint x="520" y="37" as="targetPoint" />
          </mxGeometry>
        </mxCell>
        <mxCell id="TP1zUc6pPUI-TAV0-HmN-2" value="" style="endArrow=none;html=1;rounded=0;" parent="1" edge="1">
          <mxGeometry width="50" height="50" relative="1" as="geometry">
            <mxPoint x="680" y="117" as="sourcePoint" />
            <mxPoint x="720" y="77" as="targetPoint" />
          </mxGeometry>
        </mxCell>
        <mxCell id="TP1zUc6pPUI-TAV0-HmN-3" value="" style="endArrow=none;html=1;rounded=0;" parent="1" edge="1">
          <mxGeometry width="50" height="50" relative="1" as="geometry">
            <mxPoint x="520" y="37" as="sourcePoint" />
            <mxPoint x="680" y="37" as="targetPoint" />
          </mxGeometry>
        </mxCell>
        <mxCell id="TP1zUc6pPUI-TAV0-HmN-4" value="" style="endArrow=none;html=1;rounded=0;" parent="1" edge="1">
          <mxGeometry width="50" height="50" relative="1" as="geometry">
            <mxPoint x="520" y="117" as="sourcePoint" />
            <mxPoint x="680" y="117" as="targetPoint" />
          </mxGeometry>
        </mxCell>
        <mxCell id="TP1zUc6pPUI-TAV0-HmN-5" value="" style="endArrow=none;html=1;rounded=0;" parent="1" edge="1">
          <mxGeometry width="50" height="50" relative="1" as="geometry">
            <mxPoint x="720" y="77" as="sourcePoint" />
            <mxPoint x="680" y="37" as="targetPoint" />
          </mxGeometry>
        </mxCell>
        <mxCell id="TP1zUc6pPUI-TAV0-HmN-6" value="" style="endArrow=none;html=1;rounded=0;" parent="1" edge="1">
          <mxGeometry width="50" height="50" relative="1" as="geometry">
            <mxPoint x="520" y="117" as="sourcePoint" />
            <mxPoint x="480" y="77" as="targetPoint" />
          </mxGeometry>
        </mxCell>
        <mxCell id="TP1zUc6pPUI-TAV0-HmN-7" value="" style="endArrow=none;html=1;rounded=0;" parent="1" edge="1">
          <mxGeometry width="50" height="50" relative="1" as="geometry">
            <mxPoint x="480" y="77" as="sourcePoint" />
            <mxPoint x="720" y="77" as="targetPoint" />
          </mxGeometry>
        </mxCell>
        <mxCell id="TP1zUc6pPUI-TAV0-HmN-8" value="" style="endArrow=none;html=1;rounded=0;" parent="1" edge="1">
          <mxGeometry width="50" height="50" relative="1" as="geometry">
            <mxPoint x="600" y="117" as="sourcePoint" />
            <mxPoint x="600" y="77" as="targetPoint" />
          </mxGeometry>
        </mxCell>
        <mxCell id="TP1zUc6pPUI-TAV0-HmN-9" value="MOSTRAR_PTOA" style="text;html=1;align=center;verticalAlign=middle;resizable=0;points=[];autosize=1;strokeColor=none;fillColor=none;" parent="1" vertex="1">
          <mxGeometry x="540" y="45" width="120" height="30" as="geometry" />
        </mxCell>
        <mxCell id="TP1zUc6pPUI-TAV0-HmN-10" value="V" style="text;html=1;align=center;verticalAlign=middle;resizable=0;points=[];autosize=1;strokeColor=none;fillColor=none;" parent="1" vertex="1">
          <mxGeometry x="615" y="85" width="30" height="30" as="geometry" />
        </mxCell>
        <mxCell id="TP1zUc6pPUI-TAV0-HmN-11" value="T" style="text;html=1;align=center;verticalAlign=middle;resizable=0;points=[];autosize=1;strokeColor=none;fillColor=none;" parent="1" vertex="1">
          <mxGeometry x="535" y="85" width="30" height="30" as="geometry" />
        </mxCell>
        <mxCell id="jfGUJ_QzehA1hNSq37bP-1" value="" style="endArrow=none;html=1;rounded=0;" parent="1" edge="1">
          <mxGeometry width="50" height="50" relative="1" as="geometry">
            <mxPoint x="890" y="77" as="sourcePoint" />
            <mxPoint x="930" y="37" as="targetPoint" />
          </mxGeometry>
        </mxCell>
        <mxCell id="jfGUJ_QzehA1hNSq37bP-2" value="" style="endArrow=none;html=1;rounded=0;" parent="1" edge="1">
          <mxGeometry width="50" height="50" relative="1" as="geometry">
            <mxPoint x="1090" y="117" as="sourcePoint" />
            <mxPoint x="1130" y="77" as="targetPoint" />
          </mxGeometry>
        </mxCell>
        <mxCell id="jfGUJ_QzehA1hNSq37bP-3" value="" style="endArrow=none;html=1;rounded=0;" parent="1" edge="1">
          <mxGeometry width="50" height="50" relative="1" as="geometry">
            <mxPoint x="930" y="37" as="sourcePoint" />
            <mxPoint x="1090" y="37" as="targetPoint" />
          </mxGeometry>
        </mxCell>
        <mxCell id="jfGUJ_QzehA1hNSq37bP-4" value="" style="endArrow=none;html=1;rounded=0;" parent="1" edge="1">
          <mxGeometry width="50" height="50" relative="1" as="geometry">
            <mxPoint x="930" y="117" as="sourcePoint" />
            <mxPoint x="1090" y="117" as="targetPoint" />
          </mxGeometry>
        </mxCell>
        <mxCell id="jfGUJ_QzehA1hNSq37bP-5" value="" style="endArrow=none;html=1;rounded=0;" parent="1" edge="1">
          <mxGeometry width="50" height="50" relative="1" as="geometry">
            <mxPoint x="1130" y="77" as="sourcePoint" />
            <mxPoint x="1090" y="37" as="targetPoint" />
          </mxGeometry>
        </mxCell>
        <mxCell id="jfGUJ_QzehA1hNSq37bP-6" value="" style="endArrow=none;html=1;rounded=0;" parent="1" edge="1">
          <mxGeometry width="50" height="50" relative="1" as="geometry">
            <mxPoint x="930" y="117" as="sourcePoint" />
            <mxPoint x="890" y="77" as="targetPoint" />
          </mxGeometry>
        </mxCell>
        <mxCell id="jfGUJ_QzehA1hNSq37bP-7" value="" style="endArrow=none;html=1;rounded=0;" parent="1" edge="1">
          <mxGeometry width="50" height="50" relative="1" as="geometry">
            <mxPoint x="890" y="77" as="sourcePoint" />
            <mxPoint x="1130" y="77" as="targetPoint" />
          </mxGeometry>
        </mxCell>
        <mxCell id="jfGUJ_QzehA1hNSq37bP-8" value="" style="endArrow=none;html=1;rounded=0;" parent="1" edge="1">
          <mxGeometry width="50" height="50" relative="1" as="geometry">
            <mxPoint x="1010" y="117" as="sourcePoint" />
            <mxPoint x="1010" y="77" as="targetPoint" />
          </mxGeometry>
        </mxCell>
        <mxCell id="jfGUJ_QzehA1hNSq37bP-9" value="MOSTRAR_PTOB" style="text;html=1;align=center;verticalAlign=middle;resizable=0;points=[];autosize=1;strokeColor=none;fillColor=none;" parent="1" vertex="1">
          <mxGeometry x="950" y="45" width="120" height="30" as="geometry" />
        </mxCell>
        <mxCell id="jfGUJ_QzehA1hNSq37bP-10" value="V" style="text;html=1;align=center;verticalAlign=middle;resizable=0;points=[];autosize=1;strokeColor=none;fillColor=none;" parent="1" vertex="1">
          <mxGeometry x="1025" y="85" width="30" height="30" as="geometry" />
        </mxCell>
        <mxCell id="jfGUJ_QzehA1hNSq37bP-11" value="T" style="text;html=1;align=center;verticalAlign=middle;resizable=0;points=[];autosize=1;strokeColor=none;fillColor=none;" parent="1" vertex="1">
          <mxGeometry x="945" y="85" width="30" height="30" as="geometry" />
        </mxCell>
        <mxCell id="3PZm41fEwBxHxUY9esQw-1" value="" style="endArrow=none;html=1;rounded=0;" parent="1" edge="1">
          <mxGeometry width="50" height="50" relative="1" as="geometry">
            <mxPoint x="1555" y="77" as="sourcePoint" />
            <mxPoint x="1595" y="37" as="targetPoint" />
          </mxGeometry>
        </mxCell>
        <mxCell id="3PZm41fEwBxHxUY9esQw-2" value="" style="endArrow=none;html=1;rounded=0;" parent="1" edge="1">
          <mxGeometry width="50" height="50" relative="1" as="geometry">
            <mxPoint x="1755" y="117" as="sourcePoint" />
            <mxPoint x="1795" y="77" as="targetPoint" />
          </mxGeometry>
        </mxCell>
        <mxCell id="3PZm41fEwBxHxUY9esQw-3" value="" style="endArrow=none;html=1;rounded=0;" parent="1" edge="1">
          <mxGeometry width="50" height="50" relative="1" as="geometry">
            <mxPoint x="1595" y="37" as="sourcePoint" />
            <mxPoint x="1755" y="37" as="targetPoint" />
          </mxGeometry>
        </mxCell>
        <mxCell id="3PZm41fEwBxHxUY9esQw-4" value="" style="endArrow=none;html=1;rounded=0;" parent="1" edge="1">
          <mxGeometry width="50" height="50" relative="1" as="geometry">
            <mxPoint x="1595" y="117" as="sourcePoint" />
            <mxPoint x="1755" y="117" as="targetPoint" />
          </mxGeometry>
        </mxCell>
        <mxCell id="3PZm41fEwBxHxUY9esQw-5" value="" style="endArrow=none;html=1;rounded=0;" parent="1" edge="1">
          <mxGeometry width="50" height="50" relative="1" as="geometry">
            <mxPoint x="1795" y="77" as="sourcePoint" />
            <mxPoint x="1755" y="37" as="targetPoint" />
          </mxGeometry>
        </mxCell>
        <mxCell id="3PZm41fEwBxHxUY9esQw-6" value="" style="endArrow=none;html=1;rounded=0;" parent="1" edge="1">
          <mxGeometry width="50" height="50" relative="1" as="geometry">
            <mxPoint x="1595" y="117" as="sourcePoint" />
            <mxPoint x="1555" y="77" as="targetPoint" />
          </mxGeometry>
        </mxCell>
        <mxCell id="3PZm41fEwBxHxUY9esQw-7" value="" style="endArrow=none;html=1;rounded=0;" parent="1" edge="1">
          <mxGeometry width="50" height="50" relative="1" as="geometry">
            <mxPoint x="1555" y="77" as="sourcePoint" />
            <mxPoint x="1795" y="77" as="targetPoint" />
          </mxGeometry>
        </mxCell>
        <mxCell id="3PZm41fEwBxHxUY9esQw-8" value="" style="endArrow=none;html=1;rounded=0;" parent="1" edge="1">
          <mxGeometry width="50" height="50" relative="1" as="geometry">
            <mxPoint x="1675" y="117" as="sourcePoint" />
            <mxPoint x="1675" y="77" as="targetPoint" />
          </mxGeometry>
        </mxCell>
        <mxCell id="3PZm41fEwBxHxUY9esQw-9" value="OBTENER_TRIMESTRE" style="text;html=1;align=center;verticalAlign=middle;resizable=0;points=[];autosize=1;strokeColor=none;fillColor=none;" parent="1" vertex="1">
          <mxGeometry x="1595" y="45" width="160" height="30" as="geometry" />
        </mxCell>
        <mxCell id="3PZm41fEwBxHxUY9esQw-10" value="MES" style="text;html=1;align=center;verticalAlign=middle;resizable=0;points=[];autosize=1;strokeColor=none;fillColor=none;" parent="1" vertex="1">
          <mxGeometry x="1600" y="85" width="50" height="30" as="geometry" />
        </mxCell>
        <mxCell id="3PZm41fEwBxHxUY9esQw-11" value="-" style="text;html=1;align=center;verticalAlign=middle;resizable=0;points=[];autosize=1;strokeColor=none;fillColor=none;" parent="1" vertex="1">
          <mxGeometry x="1695" y="85" width="30" height="30" as="geometry" />
        </mxCell>
        <mxCell id="Lm9HVAhw8m9jCaaP1g7t-1" value="" style="endArrow=none;html=1;rounded=0;" parent="1" edge="1">
          <mxGeometry width="50" height="50" relative="1" as="geometry">
            <mxPoint x="2120" y="77" as="sourcePoint" />
            <mxPoint x="2160" y="37" as="targetPoint" />
          </mxGeometry>
        </mxCell>
        <mxCell id="Lm9HVAhw8m9jCaaP1g7t-2" value="" style="endArrow=none;html=1;rounded=0;" parent="1" edge="1">
          <mxGeometry width="50" height="50" relative="1" as="geometry">
            <mxPoint x="2320" y="117" as="sourcePoint" />
            <mxPoint x="2360" y="77" as="targetPoint" />
          </mxGeometry>
        </mxCell>
        <mxCell id="Lm9HVAhw8m9jCaaP1g7t-3" value="" style="endArrow=none;html=1;rounded=0;" parent="1" edge="1">
          <mxGeometry width="50" height="50" relative="1" as="geometry">
            <mxPoint x="2160" y="37" as="sourcePoint" />
            <mxPoint x="2320" y="37" as="targetPoint" />
          </mxGeometry>
        </mxCell>
        <mxCell id="Lm9HVAhw8m9jCaaP1g7t-4" value="" style="endArrow=none;html=1;rounded=0;" parent="1" edge="1">
          <mxGeometry width="50" height="50" relative="1" as="geometry">
            <mxPoint x="2160" y="117" as="sourcePoint" />
            <mxPoint x="2320" y="117" as="targetPoint" />
          </mxGeometry>
        </mxCell>
        <mxCell id="Lm9HVAhw8m9jCaaP1g7t-5" value="" style="endArrow=none;html=1;rounded=0;" parent="1" edge="1">
          <mxGeometry width="50" height="50" relative="1" as="geometry">
            <mxPoint x="2360" y="77" as="sourcePoint" />
            <mxPoint x="2320" y="37" as="targetPoint" />
          </mxGeometry>
        </mxCell>
        <mxCell id="Lm9HVAhw8m9jCaaP1g7t-6" value="" style="endArrow=none;html=1;rounded=0;" parent="1" edge="1">
          <mxGeometry width="50" height="50" relative="1" as="geometry">
            <mxPoint x="2160" y="117" as="sourcePoint" />
            <mxPoint x="2120" y="77" as="targetPoint" />
          </mxGeometry>
        </mxCell>
        <mxCell id="Lm9HVAhw8m9jCaaP1g7t-7" value="" style="endArrow=none;html=1;rounded=0;" parent="1" edge="1">
          <mxGeometry width="50" height="50" relative="1" as="geometry">
            <mxPoint x="2120" y="77" as="sourcePoint" />
            <mxPoint x="2360" y="77" as="targetPoint" />
          </mxGeometry>
        </mxCell>
        <mxCell id="Lm9HVAhw8m9jCaaP1g7t-8" value="" style="endArrow=none;html=1;rounded=0;" parent="1" edge="1">
          <mxGeometry width="50" height="50" relative="1" as="geometry">
            <mxPoint x="2240" y="117" as="sourcePoint" />
            <mxPoint x="2240" y="77" as="targetPoint" />
          </mxGeometry>
        </mxCell>
        <mxCell id="Lm9HVAhw8m9jCaaP1g7t-9" value="MOSTRAR_PTOC" style="text;html=1;align=center;verticalAlign=middle;resizable=0;points=[];autosize=1;strokeColor=none;fillColor=none;" parent="1" vertex="1">
          <mxGeometry x="2180" y="45" width="120" height="30" as="geometry" />
        </mxCell>
        <mxCell id="Lm9HVAhw8m9jCaaP1g7t-10" value="V" style="text;html=1;align=center;verticalAlign=middle;resizable=0;points=[];autosize=1;strokeColor=none;fillColor=none;" parent="1" vertex="1">
          <mxGeometry x="2255" y="85" width="30" height="30" as="geometry" />
        </mxCell>
        <mxCell id="Lm9HVAhw8m9jCaaP1g7t-11" value="T" style="text;html=1;align=center;verticalAlign=middle;resizable=0;points=[];autosize=1;strokeColor=none;fillColor=none;" parent="1" vertex="1">
          <mxGeometry x="2175" y="85" width="30" height="30" as="geometry" />
        </mxCell>
        <mxCell id="agzxWOX8WziBVL6Ky1vJ-22" value="X &amp;lt; T" style="text;html=1;align=center;verticalAlign=middle;whiteSpace=wrap;rounded=0;" parent="1" vertex="1">
          <mxGeometry x="40" y="234.5" width="60" height="30" as="geometry" />
        </mxCell>
        <mxCell id="agzxWOX8WziBVL6Ky1vJ-2" value="" style="ellipse;whiteSpace=wrap;html=1;aspect=fixed;" parent="1" vertex="1">
          <mxGeometry x="30" y="190" width="80" height="80" as="geometry" />
        </mxCell>
        <mxCell id="agzxWOX8WziBVL6Ky1vJ-3" value="" style="endArrow=none;html=1;rounded=0;exitX=0.5;exitY=0;exitDx=0;exitDy=0;" parent="1" source="agzxWOX8WziBVL6Ky1vJ-2" edge="1">
          <mxGeometry width="50" height="50" relative="1" as="geometry">
            <mxPoint x="210" y="170" as="sourcePoint" />
            <mxPoint x="70" y="150" as="targetPoint" />
          </mxGeometry>
        </mxCell>
        <mxCell id="agzxWOX8WziBVL6Ky1vJ-4" value="" style="endArrow=none;html=1;rounded=0;" parent="1" edge="1">
          <mxGeometry width="50" height="50" relative="1" as="geometry">
            <mxPoint x="70" y="150" as="sourcePoint" />
            <mxPoint x="310" y="150" as="targetPoint" />
          </mxGeometry>
        </mxCell>
        <mxCell id="agzxWOX8WziBVL6Ky1vJ-5" value="" style="endArrow=none;html=1;rounded=0;" parent="1" edge="1">
          <mxGeometry width="50" height="50" relative="1" as="geometry">
            <mxPoint x="70" y="390" as="sourcePoint" />
            <mxPoint x="310" y="390" as="targetPoint" />
          </mxGeometry>
        </mxCell>
        <mxCell id="agzxWOX8WziBVL6Ky1vJ-6" value="" style="endArrow=none;html=1;rounded=0;" parent="1" edge="1">
          <mxGeometry width="50" height="50" relative="1" as="geometry">
            <mxPoint x="310" y="390" as="sourcePoint" />
            <mxPoint x="310" y="150" as="targetPoint" />
          </mxGeometry>
        </mxCell>
        <mxCell id="agzxWOX8WziBVL6Ky1vJ-7" value="" style="endArrow=none;html=1;rounded=0;" parent="1" edge="1">
          <mxGeometry width="50" height="50" relative="1" as="geometry">
            <mxPoint x="69.66" y="390" as="sourcePoint" />
            <mxPoint x="70" y="270" as="targetPoint" />
          </mxGeometry>
        </mxCell>
        <mxCell id="agzxWOX8WziBVL6Ky1vJ-8" value="" style="endArrow=none;html=1;rounded=0;exitX=0.066;exitY=0.365;exitDx=0;exitDy=0;exitPerimeter=0;entryX=0.945;entryY=0.365;entryDx=0;entryDy=0;entryPerimeter=0;" parent="1" source="agzxWOX8WziBVL6Ky1vJ-2" target="agzxWOX8WziBVL6Ky1vJ-2" edge="1">
          <mxGeometry width="50" height="50" relative="1" as="geometry">
            <mxPoint x="210" y="310" as="sourcePoint" />
            <mxPoint x="260" y="260" as="targetPoint" />
          </mxGeometry>
        </mxCell>
        <mxCell id="agzxWOX8WziBVL6Ky1vJ-9" value="" style="endArrow=none;html=1;rounded=0;exitX=0.365;exitY=0.983;exitDx=0;exitDy=0;exitPerimeter=0;" parent="1" source="agzxWOX8WziBVL6Ky1vJ-2" edge="1">
          <mxGeometry width="50" height="50" relative="1" as="geometry">
            <mxPoint x="150" y="300" as="sourcePoint" />
            <mxPoint x="60" y="220" as="targetPoint" />
          </mxGeometry>
        </mxCell>
        <mxCell id="agzxWOX8WziBVL6Ky1vJ-10" value="" style="endArrow=none;html=1;rounded=0;exitX=0.365;exitY=0.983;exitDx=0;exitDy=0;exitPerimeter=0;" parent="1" edge="1">
          <mxGeometry width="50" height="50" relative="1" as="geometry">
            <mxPoint x="90" y="269" as="sourcePoint" />
            <mxPoint x="91" y="220" as="targetPoint" />
          </mxGeometry>
        </mxCell>
        <mxCell id="agzxWOX8WziBVL6Ky1vJ-11" value="X" style="text;html=1;align=center;verticalAlign=middle;whiteSpace=wrap;rounded=0;" parent="1" vertex="1">
          <mxGeometry x="40" y="190" width="60" height="30" as="geometry" />
        </mxCell>
        <mxCell id="agzxWOX8WziBVL6Ky1vJ-12" value="X++" style="text;html=1;align=center;verticalAlign=middle;whiteSpace=wrap;rounded=0;" parent="1" vertex="1">
          <mxGeometry x="80" y="220" width="60" height="30" as="geometry" />
        </mxCell>
        <mxCell id="agzxWOX8WziBVL6Ky1vJ-23" value="X=0" style="text;html=1;align=center;verticalAlign=middle;whiteSpace=wrap;rounded=0;" parent="1" vertex="1">
          <mxGeometry x="20" y="215" width="60" height="30" as="geometry" />
        </mxCell>
        <mxCell id="agzxWOX8WziBVL6Ky1vJ-24" value="V[X] = 0" style="rounded=0;whiteSpace=wrap;html=1;" parent="1" vertex="1">
          <mxGeometry x="140" y="220" width="120" height="35" as="geometry" />
        </mxCell>
        <mxCell id="agzxWOX8WziBVL6Ky1vJ-25" value="X&amp;lt;T" style="text;html=1;align=center;verticalAlign=middle;whiteSpace=wrap;rounded=0;" parent="1" vertex="1">
          <mxGeometry x="45" y="240" width="60" height="30" as="geometry" />
        </mxCell>
        <mxCell id="agzxWOX8WziBVL6Ky1vJ-26" value="X &amp;lt; T" style="text;html=1;align=center;verticalAlign=middle;whiteSpace=wrap;rounded=0;" parent="1" vertex="1">
          <mxGeometry x="434" y="274.5" width="60" height="30" as="geometry" />
        </mxCell>
        <mxCell id="agzxWOX8WziBVL6Ky1vJ-27" value="" style="ellipse;whiteSpace=wrap;html=1;aspect=fixed;" parent="1" vertex="1">
          <mxGeometry x="424" y="230" width="80" height="80" as="geometry" />
        </mxCell>
        <mxCell id="agzxWOX8WziBVL6Ky1vJ-28" value="" style="endArrow=none;html=1;rounded=0;exitX=0.5;exitY=0;exitDx=0;exitDy=0;" parent="1" source="agzxWOX8WziBVL6Ky1vJ-27" edge="1">
          <mxGeometry width="50" height="50" relative="1" as="geometry">
            <mxPoint x="604" y="210" as="sourcePoint" />
            <mxPoint x="464" y="190" as="targetPoint" />
          </mxGeometry>
        </mxCell>
        <mxCell id="agzxWOX8WziBVL6Ky1vJ-29" value="" style="endArrow=none;html=1;rounded=0;" parent="1" edge="1">
          <mxGeometry width="50" height="50" relative="1" as="geometry">
            <mxPoint x="464" y="190" as="sourcePoint" />
            <mxPoint x="780" y="190" as="targetPoint" />
          </mxGeometry>
        </mxCell>
        <mxCell id="agzxWOX8WziBVL6Ky1vJ-30" value="" style="endArrow=none;html=1;rounded=0;" parent="1" edge="1">
          <mxGeometry width="50" height="50" relative="1" as="geometry">
            <mxPoint x="464" y="480" as="sourcePoint" />
            <mxPoint x="780" y="480" as="targetPoint" />
          </mxGeometry>
        </mxCell>
        <mxCell id="agzxWOX8WziBVL6Ky1vJ-31" value="" style="endArrow=none;html=1;rounded=0;" parent="1" edge="1">
          <mxGeometry width="50" height="50" relative="1" as="geometry">
            <mxPoint x="780" y="480" as="sourcePoint" />
            <mxPoint x="780" y="190" as="targetPoint" />
          </mxGeometry>
        </mxCell>
        <mxCell id="agzxWOX8WziBVL6Ky1vJ-32" value="" style="endArrow=none;html=1;rounded=0;" parent="1" edge="1">
          <mxGeometry width="50" height="50" relative="1" as="geometry">
            <mxPoint x="464" y="480" as="sourcePoint" />
            <mxPoint x="464" y="310" as="targetPoint" />
          </mxGeometry>
        </mxCell>
        <mxCell id="agzxWOX8WziBVL6Ky1vJ-33" value="" style="endArrow=none;html=1;rounded=0;exitX=0.066;exitY=0.365;exitDx=0;exitDy=0;exitPerimeter=0;entryX=0.945;entryY=0.365;entryDx=0;entryDy=0;entryPerimeter=0;" parent="1" source="agzxWOX8WziBVL6Ky1vJ-27" target="agzxWOX8WziBVL6Ky1vJ-27" edge="1">
          <mxGeometry width="50" height="50" relative="1" as="geometry">
            <mxPoint x="604" y="350" as="sourcePoint" />
            <mxPoint x="654" y="300" as="targetPoint" />
          </mxGeometry>
        </mxCell>
        <mxCell id="agzxWOX8WziBVL6Ky1vJ-34" value="" style="endArrow=none;html=1;rounded=0;exitX=0.365;exitY=0.983;exitDx=0;exitDy=0;exitPerimeter=0;" parent="1" source="agzxWOX8WziBVL6Ky1vJ-27" edge="1">
          <mxGeometry width="50" height="50" relative="1" as="geometry">
            <mxPoint x="544" y="340" as="sourcePoint" />
            <mxPoint x="454" y="260" as="targetPoint" />
          </mxGeometry>
        </mxCell>
        <mxCell id="agzxWOX8WziBVL6Ky1vJ-35" value="" style="endArrow=none;html=1;rounded=0;exitX=0.365;exitY=0.983;exitDx=0;exitDy=0;exitPerimeter=0;" parent="1" edge="1">
          <mxGeometry width="50" height="50" relative="1" as="geometry">
            <mxPoint x="484" y="309" as="sourcePoint" />
            <mxPoint x="485" y="260" as="targetPoint" />
          </mxGeometry>
        </mxCell>
        <mxCell id="agzxWOX8WziBVL6Ky1vJ-36" value="X" style="text;html=1;align=center;verticalAlign=middle;whiteSpace=wrap;rounded=0;" parent="1" vertex="1">
          <mxGeometry x="434" y="230" width="60" height="30" as="geometry" />
        </mxCell>
        <mxCell id="agzxWOX8WziBVL6Ky1vJ-37" value="X++" style="text;html=1;align=center;verticalAlign=middle;whiteSpace=wrap;rounded=0;" parent="1" vertex="1">
          <mxGeometry x="474" y="260" width="60" height="30" as="geometry" />
        </mxCell>
        <mxCell id="agzxWOX8WziBVL6Ky1vJ-38" value="X=0" style="text;html=1;align=center;verticalAlign=middle;whiteSpace=wrap;rounded=0;" parent="1" vertex="1">
          <mxGeometry x="414" y="255" width="60" height="30" as="geometry" />
        </mxCell>
        <mxCell id="agzxWOX8WziBVL6Ky1vJ-39" value="BAND=0" style="rounded=0;whiteSpace=wrap;html=1;" parent="1" vertex="1">
          <mxGeometry x="540" y="130" width="120" height="35" as="geometry" />
        </mxCell>
        <mxCell id="agzxWOX8WziBVL6Ky1vJ-40" value="X&amp;lt;T" style="text;html=1;align=center;verticalAlign=middle;whiteSpace=wrap;rounded=0;" parent="1" vertex="1">
          <mxGeometry x="439" y="280" width="60" height="30" as="geometry" />
        </mxCell>
        <mxCell id="agzxWOX8WziBVL6Ky1vJ-43" style="edgeStyle=orthogonalEdgeStyle;rounded=0;orthogonalLoop=1;jettySize=auto;html=1;exitX=1;exitY=0.5;exitDx=0;exitDy=0;entryX=0.5;entryY=0;entryDx=0;entryDy=0;" parent="1" source="agzxWOX8WziBVL6Ky1vJ-41" target="agzxWOX8WziBVL6Ky1vJ-42" edge="1">
          <mxGeometry relative="1" as="geometry">
            <Array as="points">
              <mxPoint x="640" y="264" />
              <mxPoint x="680" y="264" />
            </Array>
          </mxGeometry>
        </mxCell>
        <mxCell id="agzxWOX8WziBVL6Ky1vJ-54" style="edgeStyle=orthogonalEdgeStyle;rounded=0;orthogonalLoop=1;jettySize=auto;html=1;exitX=0;exitY=0.5;exitDx=0;exitDy=0;endArrow=none;endFill=0;" parent="1" source="agzxWOX8WziBVL6Ky1vJ-41" edge="1">
          <mxGeometry relative="1" as="geometry">
            <mxPoint x="630" y="480" as="targetPoint" />
            <Array as="points">
              <mxPoint x="510" y="265" />
              <mxPoint x="510" y="470" />
              <mxPoint x="630" y="470" />
            </Array>
          </mxGeometry>
        </mxCell>
        <mxCell id="agzxWOX8WziBVL6Ky1vJ-41" value="V[X] &amp;gt; 0" style="rhombus;whiteSpace=wrap;html=1;" parent="1" vertex="1">
          <mxGeometry x="540" y="224.5" width="80" height="80" as="geometry" />
        </mxCell>
        <mxCell id="agzxWOX8WziBVL6Ky1vJ-45" style="edgeStyle=orthogonalEdgeStyle;rounded=0;orthogonalLoop=1;jettySize=auto;html=1;entryX=0.75;entryY=0;entryDx=0;entryDy=0;exitX=1;exitY=0.5;exitDx=0;exitDy=0;" parent="1" source="agzxWOX8WziBVL6Ky1vJ-42" target="agzxWOX8WziBVL6Ky1vJ-44" edge="1">
          <mxGeometry relative="1" as="geometry" />
        </mxCell>
        <mxCell id="agzxWOX8WziBVL6Ky1vJ-47" style="edgeStyle=orthogonalEdgeStyle;rounded=0;orthogonalLoop=1;jettySize=auto;html=1;exitX=0;exitY=0.5;exitDx=0;exitDy=0;entryX=0.5;entryY=0;entryDx=0;entryDy=0;" parent="1" source="agzxWOX8WziBVL6Ky1vJ-42" target="agzxWOX8WziBVL6Ky1vJ-46" edge="1">
          <mxGeometry relative="1" as="geometry">
            <Array as="points">
              <mxPoint x="580" y="310" />
            </Array>
          </mxGeometry>
        </mxCell>
        <mxCell id="agzxWOX8WziBVL6Ky1vJ-42" value="BAND==0" style="rhombus;whiteSpace=wrap;html=1;" parent="1" vertex="1">
          <mxGeometry x="640" y="270" width="70" height="80" as="geometry" />
        </mxCell>
        <mxCell id="agzxWOX8WziBVL6Ky1vJ-53" style="edgeStyle=orthogonalEdgeStyle;rounded=0;orthogonalLoop=1;jettySize=auto;html=1;exitX=0.5;exitY=1;exitDx=0;exitDy=0;endArrow=none;endFill=0;" parent="1" source="agzxWOX8WziBVL6Ky1vJ-44" edge="1">
          <mxGeometry relative="1" as="geometry">
            <mxPoint x="580" y="470" as="targetPoint" />
            <Array as="points">
              <mxPoint x="720" y="470" />
            </Array>
          </mxGeometry>
        </mxCell>
        <mxCell id="agzxWOX8WziBVL6Ky1vJ-44" value="BAND=1&lt;div&gt;MIN = V[X]&lt;/div&gt;&lt;div&gt;COD = X+1&lt;/div&gt;" style="rounded=0;whiteSpace=wrap;html=1;" parent="1" vertex="1">
          <mxGeometry x="660" y="360" width="120" height="50" as="geometry" />
        </mxCell>
        <mxCell id="agzxWOX8WziBVL6Ky1vJ-49" style="edgeStyle=orthogonalEdgeStyle;rounded=0;orthogonalLoop=1;jettySize=auto;html=1;exitX=1;exitY=0.5;exitDx=0;exitDy=0;entryX=0.5;entryY=0;entryDx=0;entryDy=0;" parent="1" source="agzxWOX8WziBVL6Ky1vJ-46" target="agzxWOX8WziBVL6Ky1vJ-48" edge="1">
          <mxGeometry relative="1" as="geometry">
            <Array as="points">
              <mxPoint x="630" y="360" />
              <mxPoint x="630" y="420" />
            </Array>
          </mxGeometry>
        </mxCell>
        <mxCell id="agzxWOX8WziBVL6Ky1vJ-50" style="edgeStyle=orthogonalEdgeStyle;rounded=0;orthogonalLoop=1;jettySize=auto;html=1;exitX=0;exitY=0.5;exitDx=0;exitDy=0;endArrow=none;endFill=0;" parent="1" source="agzxWOX8WziBVL6Ky1vJ-46" edge="1">
          <mxGeometry relative="1" as="geometry">
            <mxPoint x="630" y="470" as="targetPoint" />
            <Array as="points">
              <mxPoint x="520" y="360" />
              <mxPoint x="520" y="470" />
            </Array>
          </mxGeometry>
        </mxCell>
        <mxCell id="agzxWOX8WziBVL6Ky1vJ-46" value="V[X] &amp;lt; MIN" style="rhombus;whiteSpace=wrap;html=1;" parent="1" vertex="1">
          <mxGeometry x="540" y="320" width="80" height="80" as="geometry" />
        </mxCell>
        <mxCell id="agzxWOX8WziBVL6Ky1vJ-51" style="edgeStyle=orthogonalEdgeStyle;rounded=0;orthogonalLoop=1;jettySize=auto;html=1;endArrow=none;endFill=0;" parent="1" source="agzxWOX8WziBVL6Ky1vJ-48" edge="1">
          <mxGeometry relative="1" as="geometry">
            <mxPoint x="625" y="470" as="targetPoint" />
            <Array as="points">
              <mxPoint x="625" y="470" />
            </Array>
          </mxGeometry>
        </mxCell>
        <mxCell id="agzxWOX8WziBVL6Ky1vJ-48" value="&lt;div&gt;MIN = V[X]&lt;/div&gt;&lt;div&gt;COD = X+1&lt;/div&gt;" style="rounded=0;whiteSpace=wrap;html=1;" parent="1" vertex="1">
          <mxGeometry x="565" y="420" width="120" height="40" as="geometry" />
        </mxCell>
        <mxCell id="agzxWOX8WziBVL6Ky1vJ-52" value="COD" style="shape=trapezoid;perimeter=trapezoidPerimeter;whiteSpace=wrap;html=1;fixedSize=1;" parent="1" vertex="1">
          <mxGeometry x="560" y="500" width="120" height="40" as="geometry" />
        </mxCell>
        <mxCell id="agzxWOX8WziBVL6Ky1vJ-55" value="X &amp;lt; T" style="text;html=1;align=center;verticalAlign=middle;whiteSpace=wrap;rounded=0;" parent="1" vertex="1">
          <mxGeometry x="880" y="284.5" width="60" height="30" as="geometry" />
        </mxCell>
        <mxCell id="agzxWOX8WziBVL6Ky1vJ-56" value="" style="ellipse;whiteSpace=wrap;html=1;aspect=fixed;" parent="1" vertex="1">
          <mxGeometry x="870" y="240" width="80" height="80" as="geometry" />
        </mxCell>
        <mxCell id="agzxWOX8WziBVL6Ky1vJ-57" value="" style="endArrow=none;html=1;rounded=0;exitX=0.5;exitY=0;exitDx=0;exitDy=0;" parent="1" source="agzxWOX8WziBVL6Ky1vJ-56" edge="1">
          <mxGeometry width="50" height="50" relative="1" as="geometry">
            <mxPoint x="1050" y="220" as="sourcePoint" />
            <mxPoint x="910" y="200" as="targetPoint" />
          </mxGeometry>
        </mxCell>
        <mxCell id="agzxWOX8WziBVL6Ky1vJ-58" value="" style="endArrow=none;html=1;rounded=0;" parent="1" edge="1">
          <mxGeometry width="50" height="50" relative="1" as="geometry">
            <mxPoint x="910" y="200" as="sourcePoint" />
            <mxPoint x="1226" y="200" as="targetPoint" />
          </mxGeometry>
        </mxCell>
        <mxCell id="agzxWOX8WziBVL6Ky1vJ-59" value="" style="endArrow=none;html=1;rounded=0;" parent="1" edge="1">
          <mxGeometry width="50" height="50" relative="1" as="geometry">
            <mxPoint x="910" y="490" as="sourcePoint" />
            <mxPoint x="1226" y="490" as="targetPoint" />
          </mxGeometry>
        </mxCell>
        <mxCell id="agzxWOX8WziBVL6Ky1vJ-60" value="" style="endArrow=none;html=1;rounded=0;" parent="1" edge="1">
          <mxGeometry width="50" height="50" relative="1" as="geometry">
            <mxPoint x="1226" y="490" as="sourcePoint" />
            <mxPoint x="1226" y="200" as="targetPoint" />
          </mxGeometry>
        </mxCell>
        <mxCell id="agzxWOX8WziBVL6Ky1vJ-61" value="" style="endArrow=none;html=1;rounded=0;" parent="1" edge="1">
          <mxGeometry width="50" height="50" relative="1" as="geometry">
            <mxPoint x="910" y="490" as="sourcePoint" />
            <mxPoint x="910" y="320" as="targetPoint" />
          </mxGeometry>
        </mxCell>
        <mxCell id="agzxWOX8WziBVL6Ky1vJ-62" value="" style="endArrow=none;html=1;rounded=0;exitX=0.066;exitY=0.365;exitDx=0;exitDy=0;exitPerimeter=0;entryX=0.945;entryY=0.365;entryDx=0;entryDy=0;entryPerimeter=0;" parent="1" source="agzxWOX8WziBVL6Ky1vJ-56" target="agzxWOX8WziBVL6Ky1vJ-56" edge="1">
          <mxGeometry width="50" height="50" relative="1" as="geometry">
            <mxPoint x="1050" y="360" as="sourcePoint" />
            <mxPoint x="1100" y="310" as="targetPoint" />
          </mxGeometry>
        </mxCell>
        <mxCell id="agzxWOX8WziBVL6Ky1vJ-63" value="" style="endArrow=none;html=1;rounded=0;exitX=0.365;exitY=0.983;exitDx=0;exitDy=0;exitPerimeter=0;" parent="1" source="agzxWOX8WziBVL6Ky1vJ-56" edge="1">
          <mxGeometry width="50" height="50" relative="1" as="geometry">
            <mxPoint x="990" y="350" as="sourcePoint" />
            <mxPoint x="900" y="270" as="targetPoint" />
          </mxGeometry>
        </mxCell>
        <mxCell id="agzxWOX8WziBVL6Ky1vJ-64" value="" style="endArrow=none;html=1;rounded=0;exitX=0.365;exitY=0.983;exitDx=0;exitDy=0;exitPerimeter=0;" parent="1" edge="1">
          <mxGeometry width="50" height="50" relative="1" as="geometry">
            <mxPoint x="930" y="319" as="sourcePoint" />
            <mxPoint x="931" y="270" as="targetPoint" />
          </mxGeometry>
        </mxCell>
        <mxCell id="agzxWOX8WziBVL6Ky1vJ-65" value="X" style="text;html=1;align=center;verticalAlign=middle;whiteSpace=wrap;rounded=0;" parent="1" vertex="1">
          <mxGeometry x="880" y="240" width="60" height="30" as="geometry" />
        </mxCell>
        <mxCell id="agzxWOX8WziBVL6Ky1vJ-66" value="X++" style="text;html=1;align=center;verticalAlign=middle;whiteSpace=wrap;rounded=0;" parent="1" vertex="1">
          <mxGeometry x="920" y="270" width="60" height="30" as="geometry" />
        </mxCell>
        <mxCell id="agzxWOX8WziBVL6Ky1vJ-67" value="X=0" style="text;html=1;align=center;verticalAlign=middle;whiteSpace=wrap;rounded=0;" parent="1" vertex="1">
          <mxGeometry x="860" y="265" width="60" height="30" as="geometry" />
        </mxCell>
        <mxCell id="agzxWOX8WziBVL6Ky1vJ-68" value="BAND=0" style="rounded=0;whiteSpace=wrap;html=1;" parent="1" vertex="1">
          <mxGeometry x="986" y="140" width="120" height="35" as="geometry" />
        </mxCell>
        <mxCell id="agzxWOX8WziBVL6Ky1vJ-69" value="X&amp;lt;T" style="text;html=1;align=center;verticalAlign=middle;whiteSpace=wrap;rounded=0;" parent="1" vertex="1">
          <mxGeometry x="885" y="290" width="60" height="30" as="geometry" />
        </mxCell>
        <mxCell id="agzxWOX8WziBVL6Ky1vJ-70" style="edgeStyle=orthogonalEdgeStyle;rounded=0;orthogonalLoop=1;jettySize=auto;html=1;exitX=1;exitY=0.5;exitDx=0;exitDy=0;entryX=0.5;entryY=0;entryDx=0;entryDy=0;" parent="1" source="agzxWOX8WziBVL6Ky1vJ-72" target="agzxWOX8WziBVL6Ky1vJ-75" edge="1">
          <mxGeometry relative="1" as="geometry">
            <Array as="points">
              <mxPoint x="1086" y="274" />
              <mxPoint x="1126" y="274" />
            </Array>
          </mxGeometry>
        </mxCell>
        <mxCell id="agzxWOX8WziBVL6Ky1vJ-71" style="edgeStyle=orthogonalEdgeStyle;rounded=0;orthogonalLoop=1;jettySize=auto;html=1;exitX=0;exitY=0.5;exitDx=0;exitDy=0;endArrow=none;endFill=0;" parent="1" source="agzxWOX8WziBVL6Ky1vJ-72" edge="1">
          <mxGeometry relative="1" as="geometry">
            <mxPoint x="1076" y="490" as="targetPoint" />
            <Array as="points">
              <mxPoint x="956" y="275" />
              <mxPoint x="956" y="480" />
              <mxPoint x="1076" y="480" />
            </Array>
          </mxGeometry>
        </mxCell>
        <mxCell id="agzxWOX8WziBVL6Ky1vJ-72" value="V[X]&amp;nbsp; &amp;lt; 500" style="rhombus;whiteSpace=wrap;html=1;" parent="1" vertex="1">
          <mxGeometry x="986" y="234.5" width="80" height="80" as="geometry" />
        </mxCell>
        <mxCell id="agzxWOX8WziBVL6Ky1vJ-73" style="edgeStyle=orthogonalEdgeStyle;rounded=0;orthogonalLoop=1;jettySize=auto;html=1;entryX=0.75;entryY=0;entryDx=0;entryDy=0;exitX=1;exitY=0.5;exitDx=0;exitDy=0;" parent="1" source="agzxWOX8WziBVL6Ky1vJ-75" target="agzxWOX8WziBVL6Ky1vJ-77" edge="1">
          <mxGeometry relative="1" as="geometry" />
        </mxCell>
        <mxCell id="agzxWOX8WziBVL6Ky1vJ-74" style="edgeStyle=orthogonalEdgeStyle;rounded=0;orthogonalLoop=1;jettySize=auto;html=1;exitX=0;exitY=0.5;exitDx=0;exitDy=0;entryX=0.5;entryY=0;entryDx=0;entryDy=0;" parent="1" source="agzxWOX8WziBVL6Ky1vJ-75" target="agzxWOX8WziBVL6Ky1vJ-80" edge="1">
          <mxGeometry relative="1" as="geometry">
            <Array as="points">
              <mxPoint x="1026" y="320" />
            </Array>
          </mxGeometry>
        </mxCell>
        <mxCell id="agzxWOX8WziBVL6Ky1vJ-75" value="BAND==0" style="rhombus;whiteSpace=wrap;html=1;" parent="1" vertex="1">
          <mxGeometry x="1086" y="280" width="70" height="80" as="geometry" />
        </mxCell>
        <mxCell id="agzxWOX8WziBVL6Ky1vJ-76" style="edgeStyle=orthogonalEdgeStyle;rounded=0;orthogonalLoop=1;jettySize=auto;html=1;exitX=0.5;exitY=1;exitDx=0;exitDy=0;endArrow=none;endFill=0;" parent="1" source="agzxWOX8WziBVL6Ky1vJ-77" edge="1">
          <mxGeometry relative="1" as="geometry">
            <mxPoint x="1026" y="480" as="targetPoint" />
            <Array as="points">
              <mxPoint x="1166" y="480" />
            </Array>
          </mxGeometry>
        </mxCell>
        <mxCell id="agzxWOX8WziBVL6Ky1vJ-77" value="BAND=1&lt;div&gt;MAX = V[X]&lt;/div&gt;&lt;div&gt;COD = X+1&lt;/div&gt;" style="rounded=0;whiteSpace=wrap;html=1;" parent="1" vertex="1">
          <mxGeometry x="1106" y="370" width="120" height="50" as="geometry" />
        </mxCell>
        <mxCell id="agzxWOX8WziBVL6Ky1vJ-78" style="edgeStyle=orthogonalEdgeStyle;rounded=0;orthogonalLoop=1;jettySize=auto;html=1;exitX=1;exitY=0.5;exitDx=0;exitDy=0;entryX=0.5;entryY=0;entryDx=0;entryDy=0;" parent="1" source="agzxWOX8WziBVL6Ky1vJ-80" target="agzxWOX8WziBVL6Ky1vJ-82" edge="1">
          <mxGeometry relative="1" as="geometry">
            <Array as="points">
              <mxPoint x="1076" y="370" />
              <mxPoint x="1076" y="430" />
            </Array>
          </mxGeometry>
        </mxCell>
        <mxCell id="agzxWOX8WziBVL6Ky1vJ-79" style="edgeStyle=orthogonalEdgeStyle;rounded=0;orthogonalLoop=1;jettySize=auto;html=1;exitX=0;exitY=0.5;exitDx=0;exitDy=0;endArrow=none;endFill=0;" parent="1" source="agzxWOX8WziBVL6Ky1vJ-80" edge="1">
          <mxGeometry relative="1" as="geometry">
            <mxPoint x="1076" y="480" as="targetPoint" />
            <Array as="points">
              <mxPoint x="966" y="370" />
              <mxPoint x="966" y="480" />
            </Array>
          </mxGeometry>
        </mxCell>
        <mxCell id="agzxWOX8WziBVL6Ky1vJ-80" value="V[X] &amp;gt; MAX" style="rhombus;whiteSpace=wrap;html=1;" parent="1" vertex="1">
          <mxGeometry x="986" y="330" width="80" height="80" as="geometry" />
        </mxCell>
        <mxCell id="agzxWOX8WziBVL6Ky1vJ-81" style="edgeStyle=orthogonalEdgeStyle;rounded=0;orthogonalLoop=1;jettySize=auto;html=1;endArrow=none;endFill=0;" parent="1" source="agzxWOX8WziBVL6Ky1vJ-82" edge="1">
          <mxGeometry relative="1" as="geometry">
            <mxPoint x="1071" y="480" as="targetPoint" />
            <Array as="points">
              <mxPoint x="1071" y="480" />
            </Array>
          </mxGeometry>
        </mxCell>
        <mxCell id="agzxWOX8WziBVL6Ky1vJ-82" value="&lt;div&gt;MAX = V[X]&lt;/div&gt;&lt;div&gt;COD = X+1&lt;/div&gt;" style="rounded=0;whiteSpace=wrap;html=1;" parent="1" vertex="1">
          <mxGeometry x="1011" y="430" width="120" height="40" as="geometry" />
        </mxCell>
        <mxCell id="agzxWOX8WziBVL6Ky1vJ-83" value="COD" style="shape=trapezoid;perimeter=trapezoidPerimeter;whiteSpace=wrap;html=1;fixedSize=1;" parent="1" vertex="1">
          <mxGeometry x="1006" y="510" width="120" height="40" as="geometry" />
        </mxCell>
        <mxCell id="agzxWOX8WziBVL6Ky1vJ-86" style="edgeStyle=orthogonalEdgeStyle;rounded=0;orthogonalLoop=1;jettySize=auto;html=1;exitX=1;exitY=0.5;exitDx=0;exitDy=0;entryX=0.5;entryY=0;entryDx=0;entryDy=0;endArrow=none;endFill=0;" parent="1" source="agzxWOX8WziBVL6Ky1vJ-84" target="agzxWOX8WziBVL6Ky1vJ-85" edge="1">
          <mxGeometry relative="1" as="geometry" />
        </mxCell>
        <mxCell id="agzxWOX8WziBVL6Ky1vJ-96" style="edgeStyle=orthogonalEdgeStyle;rounded=0;orthogonalLoop=1;jettySize=auto;html=1;entryX=0.5;entryY=0;entryDx=0;entryDy=0;endArrow=none;endFill=0;" parent="1" source="agzxWOX8WziBVL6Ky1vJ-84" target="agzxWOX8WziBVL6Ky1vJ-88" edge="1">
          <mxGeometry relative="1" as="geometry">
            <Array as="points">
              <mxPoint x="1590" y="175" />
            </Array>
          </mxGeometry>
        </mxCell>
        <mxCell id="agzxWOX8WziBVL6Ky1vJ-84" value="mes &amp;lt; 4" style="rhombus;whiteSpace=wrap;html=1;" parent="1" vertex="1">
          <mxGeometry x="1635" y="135" width="80" height="80" as="geometry" />
        </mxCell>
        <mxCell id="agzxWOX8WziBVL6Ky1vJ-101" style="edgeStyle=orthogonalEdgeStyle;rounded=0;orthogonalLoop=1;jettySize=auto;html=1;exitX=0.5;exitY=1;exitDx=0;exitDy=0;endArrow=none;endFill=0;" parent="1" source="agzxWOX8WziBVL6Ky1vJ-85" edge="1">
          <mxGeometry relative="1" as="geometry">
            <mxPoint x="1600" y="390" as="targetPoint" />
            <Array as="points">
              <mxPoint x="1775" y="410" />
              <mxPoint x="1601" y="410" />
              <mxPoint x="1601" y="390" />
            </Array>
          </mxGeometry>
        </mxCell>
        <mxCell id="agzxWOX8WziBVL6Ky1vJ-85" value="RETURN 1" style="rounded=0;whiteSpace=wrap;html=1;" parent="1" vertex="1">
          <mxGeometry x="1715" y="200" width="120" height="20" as="geometry" />
        </mxCell>
        <mxCell id="agzxWOX8WziBVL6Ky1vJ-87" style="edgeStyle=orthogonalEdgeStyle;rounded=0;orthogonalLoop=1;jettySize=auto;html=1;exitX=1;exitY=0.5;exitDx=0;exitDy=0;entryX=0.5;entryY=0;entryDx=0;entryDy=0;endArrow=none;endFill=0;" parent="1" source="agzxWOX8WziBVL6Ky1vJ-88" target="agzxWOX8WziBVL6Ky1vJ-89" edge="1">
          <mxGeometry relative="1" as="geometry" />
        </mxCell>
        <mxCell id="agzxWOX8WziBVL6Ky1vJ-97" style="edgeStyle=orthogonalEdgeStyle;rounded=0;orthogonalLoop=1;jettySize=auto;html=1;exitX=0;exitY=0.5;exitDx=0;exitDy=0;entryX=0.5;entryY=0;entryDx=0;entryDy=0;endArrow=none;endFill=0;" parent="1" source="agzxWOX8WziBVL6Ky1vJ-88" target="agzxWOX8WziBVL6Ky1vJ-91" edge="1">
          <mxGeometry relative="1" as="geometry" />
        </mxCell>
        <mxCell id="agzxWOX8WziBVL6Ky1vJ-88" value="mes &amp;lt; 7" style="rhombus;whiteSpace=wrap;html=1;" parent="1" vertex="1">
          <mxGeometry x="1550" y="192.5" width="80" height="80" as="geometry" />
        </mxCell>
        <mxCell id="agzxWOX8WziBVL6Ky1vJ-99" style="edgeStyle=orthogonalEdgeStyle;rounded=0;orthogonalLoop=1;jettySize=auto;html=1;exitX=0.5;exitY=1;exitDx=0;exitDy=0;endArrow=none;endFill=0;" parent="1" source="agzxWOX8WziBVL6Ky1vJ-89" edge="1">
          <mxGeometry relative="1" as="geometry">
            <mxPoint x="1530" y="380" as="targetPoint" />
            <Array as="points">
              <mxPoint x="1700" y="278" />
              <mxPoint x="1700" y="390" />
              <mxPoint x="1530" y="390" />
            </Array>
          </mxGeometry>
        </mxCell>
        <mxCell id="agzxWOX8WziBVL6Ky1vJ-89" value="RETURN 2" style="rounded=0;whiteSpace=wrap;html=1;" parent="1" vertex="1">
          <mxGeometry x="1630" y="257.5" width="120" height="20" as="geometry" />
        </mxCell>
        <mxCell id="agzxWOX8WziBVL6Ky1vJ-90" style="edgeStyle=orthogonalEdgeStyle;rounded=0;orthogonalLoop=1;jettySize=auto;html=1;exitX=1;exitY=0.5;exitDx=0;exitDy=0;entryX=0.5;entryY=0;entryDx=0;entryDy=0;endArrow=none;endFill=0;" parent="1" source="agzxWOX8WziBVL6Ky1vJ-91" target="agzxWOX8WziBVL6Ky1vJ-92" edge="1">
          <mxGeometry relative="1" as="geometry" />
        </mxCell>
        <mxCell id="agzxWOX8WziBVL6Ky1vJ-95" style="edgeStyle=orthogonalEdgeStyle;rounded=0;orthogonalLoop=1;jettySize=auto;html=1;exitX=0;exitY=0.5;exitDx=0;exitDy=0;entryX=0.5;entryY=0;entryDx=0;entryDy=0;endArrow=none;endFill=0;" parent="1" source="agzxWOX8WziBVL6Ky1vJ-91" target="agzxWOX8WziBVL6Ky1vJ-93" edge="1">
          <mxGeometry relative="1" as="geometry" />
        </mxCell>
        <mxCell id="agzxWOX8WziBVL6Ky1vJ-91" value="mes &amp;lt; 10" style="rhombus;whiteSpace=wrap;html=1;" parent="1" vertex="1">
          <mxGeometry x="1485" y="265" width="80" height="80" as="geometry" />
        </mxCell>
        <mxCell id="agzxWOX8WziBVL6Ky1vJ-92" value="RETURN 3" style="rounded=0;whiteSpace=wrap;html=1;" parent="1" vertex="1">
          <mxGeometry x="1565" y="330" width="120" height="20" as="geometry" />
        </mxCell>
        <mxCell id="agzxWOX8WziBVL6Ky1vJ-98" style="edgeStyle=orthogonalEdgeStyle;rounded=0;orthogonalLoop=1;jettySize=auto;html=1;exitX=0.5;exitY=1;exitDx=0;exitDy=0;endArrow=none;endFill=0;" parent="1" source="agzxWOX8WziBVL6Ky1vJ-93" edge="1">
          <mxGeometry relative="1" as="geometry">
            <mxPoint x="1620" y="360" as="targetPoint" />
            <Array as="points">
              <mxPoint x="1440" y="373" />
              <mxPoint x="1621" y="373" />
              <mxPoint x="1621" y="350" />
              <mxPoint x="1620" y="350" />
            </Array>
          </mxGeometry>
        </mxCell>
        <mxCell id="agzxWOX8WziBVL6Ky1vJ-93" value="RETURN 4" style="rounded=0;whiteSpace=wrap;html=1;" parent="1" vertex="1">
          <mxGeometry x="1380" y="332.5" width="120" height="20" as="geometry" />
        </mxCell>
        <mxCell id="1QYJgZCuH3DxueAcec5Z-1" value="" style="endArrow=none;html=1;rounded=0;" parent="1" edge="1">
          <mxGeometry width="50" height="50" relative="1" as="geometry">
            <mxPoint x="1555" y="560" as="sourcePoint" />
            <mxPoint x="1595" y="520" as="targetPoint" />
          </mxGeometry>
        </mxCell>
        <mxCell id="1QYJgZCuH3DxueAcec5Z-2" value="" style="endArrow=none;html=1;rounded=0;" parent="1" edge="1">
          <mxGeometry width="50" height="50" relative="1" as="geometry">
            <mxPoint x="1755" y="600" as="sourcePoint" />
            <mxPoint x="1795" y="560" as="targetPoint" />
          </mxGeometry>
        </mxCell>
        <mxCell id="1QYJgZCuH3DxueAcec5Z-3" value="" style="endArrow=none;html=1;rounded=0;" parent="1" edge="1">
          <mxGeometry width="50" height="50" relative="1" as="geometry">
            <mxPoint x="1595" y="520" as="sourcePoint" />
            <mxPoint x="1755" y="520" as="targetPoint" />
          </mxGeometry>
        </mxCell>
        <mxCell id="1QYJgZCuH3DxueAcec5Z-4" value="" style="endArrow=none;html=1;rounded=0;" parent="1" edge="1">
          <mxGeometry width="50" height="50" relative="1" as="geometry">
            <mxPoint x="1595" y="600" as="sourcePoint" />
            <mxPoint x="1755" y="600" as="targetPoint" />
          </mxGeometry>
        </mxCell>
        <mxCell id="1QYJgZCuH3DxueAcec5Z-5" value="" style="endArrow=none;html=1;rounded=0;" parent="1" edge="1">
          <mxGeometry width="50" height="50" relative="1" as="geometry">
            <mxPoint x="1795" y="560" as="sourcePoint" />
            <mxPoint x="1755" y="520" as="targetPoint" />
          </mxGeometry>
        </mxCell>
        <mxCell id="1QYJgZCuH3DxueAcec5Z-6" value="" style="endArrow=none;html=1;rounded=0;" parent="1" edge="1">
          <mxGeometry width="50" height="50" relative="1" as="geometry">
            <mxPoint x="1595" y="600" as="sourcePoint" />
            <mxPoint x="1555" y="560" as="targetPoint" />
          </mxGeometry>
        </mxCell>
        <mxCell id="1QYJgZCuH3DxueAcec5Z-7" value="" style="endArrow=none;html=1;rounded=0;" parent="1" edge="1">
          <mxGeometry width="50" height="50" relative="1" as="geometry">
            <mxPoint x="1555" y="560" as="sourcePoint" />
            <mxPoint x="1795" y="560" as="targetPoint" />
          </mxGeometry>
        </mxCell>
        <mxCell id="1QYJgZCuH3DxueAcec5Z-8" value="" style="endArrow=none;html=1;rounded=0;" parent="1" edge="1">
          <mxGeometry width="50" height="50" relative="1" as="geometry">
            <mxPoint x="1675" y="600" as="sourcePoint" />
            <mxPoint x="1675" y="560" as="targetPoint" />
          </mxGeometry>
        </mxCell>
        <mxCell id="1QYJgZCuH3DxueAcec5Z-9" value="OBTENER_BIMESTRE" style="text;html=1;align=center;verticalAlign=middle;resizable=0;points=[];autosize=1;strokeColor=none;fillColor=none;" parent="1" vertex="1">
          <mxGeometry x="1600" y="528" width="150" height="30" as="geometry" />
        </mxCell>
        <mxCell id="1QYJgZCuH3DxueAcec5Z-10" value="MES" style="text;html=1;align=center;verticalAlign=middle;resizable=0;points=[];autosize=1;strokeColor=none;fillColor=none;" parent="1" vertex="1">
          <mxGeometry x="1600" y="568" width="50" height="30" as="geometry" />
        </mxCell>
        <mxCell id="1QYJgZCuH3DxueAcec5Z-11" value="-" style="text;html=1;align=center;verticalAlign=middle;resizable=0;points=[];autosize=1;strokeColor=none;fillColor=none;" parent="1" vertex="1">
          <mxGeometry x="1695" y="568" width="30" height="30" as="geometry" />
        </mxCell>
        <mxCell id="1QYJgZCuH3DxueAcec5Z-16" value="RETURN (MES + MES%2 ) /2" style="rounded=0;whiteSpace=wrap;html=1;" parent="1" vertex="1">
          <mxGeometry x="1595" y="630" width="185" height="40" as="geometry" />
        </mxCell>
        <mxCell id="uFc87H-186H8QP09RHGZ-1" value="X &amp;lt; T" style="text;html=1;align=center;verticalAlign=middle;whiteSpace=wrap;rounded=0;" parent="1" vertex="1">
          <mxGeometry x="2076.58" y="284.5" width="60" height="30" as="geometry" />
        </mxCell>
        <mxCell id="uFc87H-186H8QP09RHGZ-2" value="" style="ellipse;whiteSpace=wrap;html=1;aspect=fixed;" parent="1" vertex="1">
          <mxGeometry x="2066.58" y="240" width="80" height="80" as="geometry" />
        </mxCell>
        <mxCell id="uFc87H-186H8QP09RHGZ-3" value="" style="endArrow=none;html=1;rounded=0;exitX=0.5;exitY=0;exitDx=0;exitDy=0;" parent="1" source="uFc87H-186H8QP09RHGZ-2" edge="1">
          <mxGeometry width="50" height="50" relative="1" as="geometry">
            <mxPoint x="2246.58" y="220" as="sourcePoint" />
            <mxPoint x="2106.58" y="200" as="targetPoint" />
          </mxGeometry>
        </mxCell>
        <mxCell id="uFc87H-186H8QP09RHGZ-4" value="" style="endArrow=none;html=1;rounded=0;" parent="1" edge="1">
          <mxGeometry width="50" height="50" relative="1" as="geometry">
            <mxPoint x="2106.58" y="200" as="sourcePoint" />
            <mxPoint x="2422.58" y="200" as="targetPoint" />
          </mxGeometry>
        </mxCell>
        <mxCell id="uFc87H-186H8QP09RHGZ-5" value="" style="endArrow=none;html=1;rounded=0;" parent="1" edge="1">
          <mxGeometry width="50" height="50" relative="1" as="geometry">
            <mxPoint x="2106.58" y="490" as="sourcePoint" />
            <mxPoint x="2422.58" y="490" as="targetPoint" />
          </mxGeometry>
        </mxCell>
        <mxCell id="uFc87H-186H8QP09RHGZ-6" value="" style="endArrow=none;html=1;rounded=0;" parent="1" edge="1">
          <mxGeometry width="50" height="50" relative="1" as="geometry">
            <mxPoint x="2422.58" y="490" as="sourcePoint" />
            <mxPoint x="2422.58" y="200" as="targetPoint" />
          </mxGeometry>
        </mxCell>
        <mxCell id="uFc87H-186H8QP09RHGZ-7" value="" style="endArrow=none;html=1;rounded=0;" parent="1" edge="1">
          <mxGeometry width="50" height="50" relative="1" as="geometry">
            <mxPoint x="2106.58" y="490" as="sourcePoint" />
            <mxPoint x="2106.58" y="320" as="targetPoint" />
          </mxGeometry>
        </mxCell>
        <mxCell id="uFc87H-186H8QP09RHGZ-8" value="" style="endArrow=none;html=1;rounded=0;exitX=0.066;exitY=0.365;exitDx=0;exitDy=0;exitPerimeter=0;entryX=0.945;entryY=0.365;entryDx=0;entryDy=0;entryPerimeter=0;" parent="1" source="uFc87H-186H8QP09RHGZ-2" target="uFc87H-186H8QP09RHGZ-2" edge="1">
          <mxGeometry width="50" height="50" relative="1" as="geometry">
            <mxPoint x="2246.58" y="360" as="sourcePoint" />
            <mxPoint x="2296.58" y="310" as="targetPoint" />
          </mxGeometry>
        </mxCell>
        <mxCell id="uFc87H-186H8QP09RHGZ-9" value="" style="endArrow=none;html=1;rounded=0;exitX=0.365;exitY=0.983;exitDx=0;exitDy=0;exitPerimeter=0;" parent="1" source="uFc87H-186H8QP09RHGZ-2" edge="1">
          <mxGeometry width="50" height="50" relative="1" as="geometry">
            <mxPoint x="2186.58" y="350" as="sourcePoint" />
            <mxPoint x="2096.58" y="270" as="targetPoint" />
          </mxGeometry>
        </mxCell>
        <mxCell id="uFc87H-186H8QP09RHGZ-10" value="" style="endArrow=none;html=1;rounded=0;exitX=0.365;exitY=0.983;exitDx=0;exitDy=0;exitPerimeter=0;" parent="1" edge="1">
          <mxGeometry width="50" height="50" relative="1" as="geometry">
            <mxPoint x="2126.58" y="319" as="sourcePoint" />
            <mxPoint x="2127.58" y="270" as="targetPoint" />
          </mxGeometry>
        </mxCell>
        <mxCell id="uFc87H-186H8QP09RHGZ-11" value="X" style="text;html=1;align=center;verticalAlign=middle;whiteSpace=wrap;rounded=0;" parent="1" vertex="1">
          <mxGeometry x="2076.58" y="240" width="60" height="30" as="geometry" />
        </mxCell>
        <mxCell id="uFc87H-186H8QP09RHGZ-12" value="X++" style="text;html=1;align=center;verticalAlign=middle;whiteSpace=wrap;rounded=0;" parent="1" vertex="1">
          <mxGeometry x="2116.58" y="270" width="60" height="30" as="geometry" />
        </mxCell>
        <mxCell id="uFc87H-186H8QP09RHGZ-13" value="X=0" style="text;html=1;align=center;verticalAlign=middle;whiteSpace=wrap;rounded=0;" parent="1" vertex="1">
          <mxGeometry x="2056.58" y="265" width="60" height="30" as="geometry" />
        </mxCell>
        <mxCell id="uFc87H-186H8QP09RHGZ-14" value="TOTAL = 0" style="rounded=0;whiteSpace=wrap;html=1;" parent="1" vertex="1">
          <mxGeometry x="2182.58" y="140" width="120" height="35" as="geometry" />
        </mxCell>
        <mxCell id="uFc87H-186H8QP09RHGZ-15" value="X&amp;lt;T" style="text;html=1;align=center;verticalAlign=middle;whiteSpace=wrap;rounded=0;" parent="1" vertex="1">
          <mxGeometry x="2081.58" y="290" width="60" height="30" as="geometry" />
        </mxCell>
        <mxCell id="uFc87H-186H8QP09RHGZ-29" value="TOTAL += V[X]" style="rounded=0;whiteSpace=wrap;html=1;" parent="1" vertex="1">
          <mxGeometry x="2200" y="314.5" width="120" height="50" as="geometry" />
        </mxCell>
        <mxCell id="uFc87H-186H8QP09RHGZ-30" value="X &amp;lt; T" style="text;html=1;align=center;verticalAlign=middle;whiteSpace=wrap;rounded=0;" parent="1" vertex="1">
          <mxGeometry x="2070" y="594.5" width="60" height="30" as="geometry" />
        </mxCell>
        <mxCell id="uFc87H-186H8QP09RHGZ-31" value="" style="ellipse;whiteSpace=wrap;html=1;aspect=fixed;" parent="1" vertex="1">
          <mxGeometry x="2060" y="550" width="80" height="80" as="geometry" />
        </mxCell>
        <mxCell id="uFc87H-186H8QP09RHGZ-32" value="" style="endArrow=none;html=1;rounded=0;exitX=0.5;exitY=0;exitDx=0;exitDy=0;" parent="1" source="uFc87H-186H8QP09RHGZ-31" edge="1">
          <mxGeometry width="50" height="50" relative="1" as="geometry">
            <mxPoint x="2240" y="530" as="sourcePoint" />
            <mxPoint x="2100" y="510" as="targetPoint" />
          </mxGeometry>
        </mxCell>
        <mxCell id="uFc87H-186H8QP09RHGZ-33" value="" style="endArrow=none;html=1;rounded=0;" parent="1" edge="1">
          <mxGeometry width="50" height="50" relative="1" as="geometry">
            <mxPoint x="2100" y="510" as="sourcePoint" />
            <mxPoint x="2416" y="510" as="targetPoint" />
          </mxGeometry>
        </mxCell>
        <mxCell id="uFc87H-186H8QP09RHGZ-34" value="" style="endArrow=none;html=1;rounded=0;" parent="1" edge="1">
          <mxGeometry width="50" height="50" relative="1" as="geometry">
            <mxPoint x="2100" y="800" as="sourcePoint" />
            <mxPoint x="2416" y="800" as="targetPoint" />
          </mxGeometry>
        </mxCell>
        <mxCell id="uFc87H-186H8QP09RHGZ-35" value="" style="endArrow=none;html=1;rounded=0;" parent="1" edge="1">
          <mxGeometry width="50" height="50" relative="1" as="geometry">
            <mxPoint x="2416" y="800" as="sourcePoint" />
            <mxPoint x="2416" y="510" as="targetPoint" />
          </mxGeometry>
        </mxCell>
        <mxCell id="uFc87H-186H8QP09RHGZ-36" value="" style="endArrow=none;html=1;rounded=0;" parent="1" edge="1">
          <mxGeometry width="50" height="50" relative="1" as="geometry">
            <mxPoint x="2100" y="800" as="sourcePoint" />
            <mxPoint x="2100" y="630" as="targetPoint" />
          </mxGeometry>
        </mxCell>
        <mxCell id="uFc87H-186H8QP09RHGZ-37" value="" style="endArrow=none;html=1;rounded=0;exitX=0.066;exitY=0.365;exitDx=0;exitDy=0;exitPerimeter=0;entryX=0.945;entryY=0.365;entryDx=0;entryDy=0;entryPerimeter=0;" parent="1" source="uFc87H-186H8QP09RHGZ-31" target="uFc87H-186H8QP09RHGZ-31" edge="1">
          <mxGeometry width="50" height="50" relative="1" as="geometry">
            <mxPoint x="2240" y="670" as="sourcePoint" />
            <mxPoint x="2290" y="620" as="targetPoint" />
          </mxGeometry>
        </mxCell>
        <mxCell id="uFc87H-186H8QP09RHGZ-38" value="" style="endArrow=none;html=1;rounded=0;exitX=0.365;exitY=0.983;exitDx=0;exitDy=0;exitPerimeter=0;" parent="1" source="uFc87H-186H8QP09RHGZ-31" edge="1">
          <mxGeometry width="50" height="50" relative="1" as="geometry">
            <mxPoint x="2180" y="660" as="sourcePoint" />
            <mxPoint x="2090" y="580" as="targetPoint" />
          </mxGeometry>
        </mxCell>
        <mxCell id="uFc87H-186H8QP09RHGZ-39" value="" style="endArrow=none;html=1;rounded=0;exitX=0.365;exitY=0.983;exitDx=0;exitDy=0;exitPerimeter=0;" parent="1" edge="1">
          <mxGeometry width="50" height="50" relative="1" as="geometry">
            <mxPoint x="2120" y="629" as="sourcePoint" />
            <mxPoint x="2121" y="580" as="targetPoint" />
          </mxGeometry>
        </mxCell>
        <mxCell id="uFc87H-186H8QP09RHGZ-40" value="X" style="text;html=1;align=center;verticalAlign=middle;whiteSpace=wrap;rounded=0;" parent="1" vertex="1">
          <mxGeometry x="2070" y="550" width="60" height="30" as="geometry" />
        </mxCell>
        <mxCell id="uFc87H-186H8QP09RHGZ-41" value="X++" style="text;html=1;align=center;verticalAlign=middle;whiteSpace=wrap;rounded=0;" parent="1" vertex="1">
          <mxGeometry x="2110" y="580" width="60" height="30" as="geometry" />
        </mxCell>
        <mxCell id="uFc87H-186H8QP09RHGZ-42" value="X=0" style="text;html=1;align=center;verticalAlign=middle;whiteSpace=wrap;rounded=0;" parent="1" vertex="1">
          <mxGeometry x="2050" y="575" width="60" height="30" as="geometry" />
        </mxCell>
        <mxCell id="uFc87H-186H8QP09RHGZ-43" value="X&amp;lt;T" style="text;html=1;align=center;verticalAlign=middle;whiteSpace=wrap;rounded=0;" parent="1" vertex="1">
          <mxGeometry x="2075" y="600" width="60" height="30" as="geometry" />
        </mxCell>
        <mxCell id="uFc87H-186H8QP09RHGZ-46" value="&quot;TRIMESTRE &quot;, X + 1,&lt;div&gt;&quot;RECAUDO: &quot;, V[X]*100/TOTAL, &quot; %&quot;&lt;/div&gt;" style="shape=trapezoid;perimeter=trapezoidPerimeter;whiteSpace=wrap;html=1;fixedSize=1;" parent="1" vertex="1">
          <mxGeometry x="2170" y="580" width="240" height="120" as="geometry" />
        </mxCell>
        <mxCell id="AeD0znX9UU3TqLanDv0M-1" value="" style="endArrow=none;html=1;rounded=0;" parent="1" edge="1">
          <mxGeometry width="50" height="50" relative="1" as="geometry">
            <mxPoint x="2560" y="77" as="sourcePoint" />
            <mxPoint x="2600" y="37" as="targetPoint" />
          </mxGeometry>
        </mxCell>
        <mxCell id="AeD0znX9UU3TqLanDv0M-2" value="" style="endArrow=none;html=1;rounded=0;" parent="1" edge="1">
          <mxGeometry width="50" height="50" relative="1" as="geometry">
            <mxPoint x="2760" y="117" as="sourcePoint" />
            <mxPoint x="2800" y="77" as="targetPoint" />
          </mxGeometry>
        </mxCell>
        <mxCell id="AeD0znX9UU3TqLanDv0M-3" value="" style="endArrow=none;html=1;rounded=0;" parent="1" edge="1">
          <mxGeometry width="50" height="50" relative="1" as="geometry">
            <mxPoint x="2600" y="37" as="sourcePoint" />
            <mxPoint x="2760" y="37" as="targetPoint" />
          </mxGeometry>
        </mxCell>
        <mxCell id="AeD0znX9UU3TqLanDv0M-4" value="" style="endArrow=none;html=1;rounded=0;" parent="1" edge="1">
          <mxGeometry width="50" height="50" relative="1" as="geometry">
            <mxPoint x="2600" y="117" as="sourcePoint" />
            <mxPoint x="2760" y="117" as="targetPoint" />
          </mxGeometry>
        </mxCell>
        <mxCell id="AeD0znX9UU3TqLanDv0M-5" value="" style="endArrow=none;html=1;rounded=0;" parent="1" edge="1">
          <mxGeometry width="50" height="50" relative="1" as="geometry">
            <mxPoint x="2800" y="77" as="sourcePoint" />
            <mxPoint x="2760" y="37" as="targetPoint" />
          </mxGeometry>
        </mxCell>
        <mxCell id="AeD0znX9UU3TqLanDv0M-6" value="" style="endArrow=none;html=1;rounded=0;" parent="1" edge="1">
          <mxGeometry width="50" height="50" relative="1" as="geometry">
            <mxPoint x="2600" y="117" as="sourcePoint" />
            <mxPoint x="2560" y="77" as="targetPoint" />
          </mxGeometry>
        </mxCell>
        <mxCell id="AeD0znX9UU3TqLanDv0M-7" value="" style="endArrow=none;html=1;rounded=0;" parent="1" edge="1">
          <mxGeometry width="50" height="50" relative="1" as="geometry">
            <mxPoint x="2560" y="77" as="sourcePoint" />
            <mxPoint x="2800" y="77" as="targetPoint" />
          </mxGeometry>
        </mxCell>
        <mxCell id="AeD0znX9UU3TqLanDv0M-8" value="" style="endArrow=none;html=1;rounded=0;" parent="1" edge="1">
          <mxGeometry width="50" height="50" relative="1" as="geometry">
            <mxPoint x="2680" y="117" as="sourcePoint" />
            <mxPoint x="2680" y="77" as="targetPoint" />
          </mxGeometry>
        </mxCell>
        <mxCell id="AeD0znX9UU3TqLanDv0M-9" value="MOSTRAR_PTOD" style="text;html=1;align=center;verticalAlign=middle;resizable=0;points=[];autosize=1;strokeColor=none;fillColor=none;" parent="1" vertex="1">
          <mxGeometry x="2620" y="45" width="120" height="30" as="geometry" />
        </mxCell>
        <mxCell id="AeD0znX9UU3TqLanDv0M-10" value="V" style="text;html=1;align=center;verticalAlign=middle;resizable=0;points=[];autosize=1;strokeColor=none;fillColor=none;" parent="1" vertex="1">
          <mxGeometry x="2695" y="85" width="30" height="30" as="geometry" />
        </mxCell>
        <mxCell id="AeD0znX9UU3TqLanDv0M-11" value="T" style="text;html=1;align=center;verticalAlign=middle;resizable=0;points=[];autosize=1;strokeColor=none;fillColor=none;" parent="1" vertex="1">
          <mxGeometry x="2615" y="85" width="30" height="30" as="geometry" />
        </mxCell>
        <mxCell id="AeD0znX9UU3TqLanDv0M-12" value="X &amp;lt; T" style="text;html=1;align=center;verticalAlign=middle;whiteSpace=wrap;rounded=0;" parent="1" vertex="1">
          <mxGeometry x="2520" y="244.16000000000003" width="60" height="30" as="geometry" />
        </mxCell>
        <mxCell id="AeD0znX9UU3TqLanDv0M-13" value="" style="ellipse;whiteSpace=wrap;html=1;aspect=fixed;" parent="1" vertex="1">
          <mxGeometry x="2510" y="199.66000000000003" width="80" height="80" as="geometry" />
        </mxCell>
        <mxCell id="AeD0znX9UU3TqLanDv0M-14" value="" style="endArrow=none;html=1;rounded=0;exitX=0.5;exitY=0;exitDx=0;exitDy=0;" parent="1" source="AeD0znX9UU3TqLanDv0M-13" edge="1">
          <mxGeometry width="50" height="50" relative="1" as="geometry">
            <mxPoint x="2690" y="179.66000000000003" as="sourcePoint" />
            <mxPoint x="2550" y="159.66000000000003" as="targetPoint" />
          </mxGeometry>
        </mxCell>
        <mxCell id="AeD0znX9UU3TqLanDv0M-15" value="" style="endArrow=none;html=1;rounded=0;" parent="1" edge="1">
          <mxGeometry width="50" height="50" relative="1" as="geometry">
            <mxPoint x="2550" y="159.66000000000003" as="sourcePoint" />
            <mxPoint x="2866" y="159.66000000000003" as="targetPoint" />
          </mxGeometry>
        </mxCell>
        <mxCell id="AeD0znX9UU3TqLanDv0M-16" value="" style="endArrow=none;html=1;rounded=0;" parent="1" edge="1">
          <mxGeometry width="50" height="50" relative="1" as="geometry">
            <mxPoint x="2550" y="449.66" as="sourcePoint" />
            <mxPoint x="2866" y="449.66" as="targetPoint" />
          </mxGeometry>
        </mxCell>
        <mxCell id="AeD0znX9UU3TqLanDv0M-17" value="" style="endArrow=none;html=1;rounded=0;" parent="1" edge="1">
          <mxGeometry width="50" height="50" relative="1" as="geometry">
            <mxPoint x="2866" y="449.66" as="sourcePoint" />
            <mxPoint x="2866" y="159.66000000000003" as="targetPoint" />
          </mxGeometry>
        </mxCell>
        <mxCell id="AeD0znX9UU3TqLanDv0M-18" value="" style="endArrow=none;html=1;rounded=0;" parent="1" edge="1">
          <mxGeometry width="50" height="50" relative="1" as="geometry">
            <mxPoint x="2550" y="449.66" as="sourcePoint" />
            <mxPoint x="2550" y="279.66" as="targetPoint" />
          </mxGeometry>
        </mxCell>
        <mxCell id="AeD0znX9UU3TqLanDv0M-19" value="" style="endArrow=none;html=1;rounded=0;exitX=0.066;exitY=0.365;exitDx=0;exitDy=0;exitPerimeter=0;entryX=0.945;entryY=0.365;entryDx=0;entryDy=0;entryPerimeter=0;" parent="1" source="AeD0znX9UU3TqLanDv0M-13" target="AeD0znX9UU3TqLanDv0M-13" edge="1">
          <mxGeometry width="50" height="50" relative="1" as="geometry">
            <mxPoint x="2690" y="319.66" as="sourcePoint" />
            <mxPoint x="2740" y="269.66" as="targetPoint" />
          </mxGeometry>
        </mxCell>
        <mxCell id="AeD0znX9UU3TqLanDv0M-20" value="" style="endArrow=none;html=1;rounded=0;exitX=0.365;exitY=0.983;exitDx=0;exitDy=0;exitPerimeter=0;" parent="1" source="AeD0znX9UU3TqLanDv0M-13" edge="1">
          <mxGeometry width="50" height="50" relative="1" as="geometry">
            <mxPoint x="2630" y="309.66" as="sourcePoint" />
            <mxPoint x="2540" y="229.66000000000003" as="targetPoint" />
          </mxGeometry>
        </mxCell>
        <mxCell id="AeD0znX9UU3TqLanDv0M-21" value="" style="endArrow=none;html=1;rounded=0;exitX=0.365;exitY=0.983;exitDx=0;exitDy=0;exitPerimeter=0;" parent="1" edge="1">
          <mxGeometry width="50" height="50" relative="1" as="geometry">
            <mxPoint x="2570" y="278.66" as="sourcePoint" />
            <mxPoint x="2571" y="229.66000000000003" as="targetPoint" />
          </mxGeometry>
        </mxCell>
        <mxCell id="AeD0znX9UU3TqLanDv0M-22" value="X" style="text;html=1;align=center;verticalAlign=middle;whiteSpace=wrap;rounded=0;" parent="1" vertex="1">
          <mxGeometry x="2520" y="199.66000000000003" width="60" height="30" as="geometry" />
        </mxCell>
        <mxCell id="AeD0znX9UU3TqLanDv0M-23" value="X++" style="text;html=1;align=center;verticalAlign=middle;whiteSpace=wrap;rounded=0;" parent="1" vertex="1">
          <mxGeometry x="2560" y="229.66000000000003" width="60" height="30" as="geometry" />
        </mxCell>
        <mxCell id="AeD0znX9UU3TqLanDv0M-24" value="X&amp;lt;T" style="text;html=1;align=center;verticalAlign=middle;whiteSpace=wrap;rounded=0;" parent="1" vertex="1">
          <mxGeometry x="2525" y="249.66000000000003" width="60" height="30" as="geometry" />
        </mxCell>
        <mxCell id="AeD0znX9UU3TqLanDv0M-25" value="&quot;BIMESTRE&quot;, X + 1,&lt;div&gt;&quot;RECAUDO $: &quot;, V[X]&lt;/div&gt;" style="shape=trapezoid;perimeter=trapezoidPerimeter;whiteSpace=wrap;html=1;fixedSize=1;" parent="1" vertex="1">
          <mxGeometry x="2620" y="229.66000000000003" width="240" height="120" as="geometry" />
        </mxCell>
        <mxCell id="AeD0znX9UU3TqLanDv0M-26" value="X=0" style="text;html=1;align=center;verticalAlign=middle;whiteSpace=wrap;rounded=0;" parent="1" vertex="1">
          <mxGeometry x="2500" y="234.5" width="60" height="30" as="geometry" />
        </mxCell>
      </root>
    </mxGraphModel>
  </diagram>
</mxfile>
